<svg height="512" viewBox="0 0 48 60" width="512" xmlns="http://www.w3.org/2000/svg"><g id="035---Creative-Writing" fill="none"><g id="Icons" transform="translate(1 6)"><rect id="Rectangle-path" fill="#cad9fc" height="41" rx="3" width="34" y="12"/><rect id="Rectangle-path" fill="#e8edfc" height="41" rx="3" width="31" y="12"/><path id="Shape" d="m21 16v4h-8c0-3.52 0-3.88 0-4z" fill="#a4c2f7"/><path id="Shape" d="m22.37 12.49c-.8579366.9708332-1.3434248 2.2146753-1.37 3.51h-8c-.0764202-1.3245141-.5818808-2.5881655-1.44-3.6-2.31681257-2.87024654-2.0087889-7.04582185.7041179-9.54503627 2.7129067-2.49921441 6.8996829-2.4643891 9.5706406.07960792 2.6709576 2.54399702 2.9094792 6.72411845.5452415 9.55542835z" fill="#e8edfc"/><path id="Shape" d="m21 20v2c0 1.1045695-.8954305 2-2 2h-4c-1.1045695 0-2-.8954305-2-2v-2z" fill="#a4c2f7"/><path id="Shape" d="m19 24v2c0 1.1045695-.8954305 2-2 2s-2-.8954305-2-2v-2z" fill="#7facfa"/><path id="Shape" d="m22.37 12.49c-.8579366.9708332-1.3434248 2.2146753-1.37 3.51h-3c.0265752-1.2953247.5120634-2.5391668 1.37-3.51 1.5709008-1.8785939 2.0458831-4.44152102 1.2524994-6.75828311s-2.7397688-4.05048308-5.1324994-4.57171689c2.9268588-.64865113 5.9418457.63848109 7.497854 3.20091917 1.5560083 2.56243809 1.307561 5.83124973-.617854 8.12908083z" fill="#cad9fc"/><path id="Shape" d="m40.59 28.49-16.27 16.27-5.65-5.66 16.26-16.26z" fill="#e8edfc"/><path id="Shape" d="m24.32 44.76c-8.1 3.47-9.72 4.12-9.89 4.23l4.24-9.89z" fill="#a4c2f7"/><path id="Shape" d="m44.83 24.25-4.24 4.24-5.66-5.65 4.24-4.25c1.0110616-1.0110616 2.484716-1.4059261 3.8658519-1.0358519 1.3811358.3700742 2.4599258 1.4488642 2.83 2.83.3700742 1.3811359-.0247903 2.8547903-1.0358519 3.8658519z" fill="#a4c2f7"/><path id="Shape" d="m40.59 28.49-16.27 16.27-1.99-2 16.26-16.26z" fill="#cad9fc"/><g fill="#7facfa"><path id="Shape" d="m24.32 44.76c-8.1 3.47-9.72 4.12-9.89 4.23l1.5-3.49 6.39-2.73z"/><path id="Shape" d="m44.83 24.25-4.24 4.24-2-2 4.24-4.24c1.1763728-1.1790602 1.4990361-2.9636672.81-4.48 1.2007461.5384474 2.0598382 1.6330414 2.2975266 2.9273446.2376884 1.2943033-.1764384 2.6227138-1.1075266 3.5526554z"/></g></g><path id="Shape" d="m0 38c0 1.6568542 1.34314575 3 3 3h3c-1.65685425 0-3-1.3431458-3-3v-35c0-1.65685425 1.34314575-3 3-3h-3c-1.65685425 0-3 1.34314575-3 3z" fill="#fff" transform="translate(1 18)"/><path id="Rectangle-path" d="m0 21h2v8h-2z" fill="#fff"/><g fill="#428dff"><path id="Shape" d="m0 56c0 2.209139 1.790861 4 4 4h28c2.209139 0 4-1.790861 4-4v-9.27c0-.5522847-.4477153-1-1-1s-1 .4477153-1 1v9.27c0 1.1045695-.8954305 2-2 2h-28c-1.1045695 0-2-.8954305-2-2v-27c0-.5522847-.44771525-1-1-1s-1 .4477153-1 1z"/><circle id="Oval" cx="1" cy="25" r="1"/><path id="Shape" d="m10.59 17h-6.59c-2.209139 0-4 1.790861-4 4 0 .5522847.44771525 1 1 1s1-.4477153 1-1c0-1.1045695.8954305-2 2-2h7.75c.7720628.8913007 1.2134967 2.0213714 1.25 3.2v5.8c.0035644 1.2682549.8042713 2.3972517 2 2.82 0 1.27-.13 2.31.87 3.29.8557116.8627584 2.1473566 1.1241063 3.2711624.6618782s1.8577829-1.5567267 1.8588376-2.7718782v-1.18c1.1957287-.4227483 1.9964356-1.5517451 2-2.82v-6c.0359395-1.1172653.4766137-2.1834127 1.24-3h7.76c1.1045695 0 2 .8954305 2 2 0 .5522847.4477153 1 1 1 2.09 0 .81-5-3-5h-6.58c1.3532783-3.3415546.304311-7.17544071-2.5616451-9.36259518-2.8659562-2.18715448-6.8407536-2.18715448-9.7067098 0-2.8659561 2.18715447-3.91492337 6.02104058-2.5616451 9.36259518zm8.41 15c-.0056782.4026282-.252292.762573-.6257065.913249-.3734146.1506761-.8007742.0626855-1.0842935-.223249-.35-.34-.29-.62-.29-1.69h2zm2-4c0 .5522847-.4477153 1-1 1h-4c-.5522847 0-1-.4477153-1-1v-1h6zm0-3h-6v-2h6zm-7-15.48c2.3387386-2.15364026 5.9513865-2.10910844 8.2363282.10152627 2.2849418 2.21063473 2.448843 5.81983743.3736718 8.22847373-.7775276.8950507-1.2991891 1.983285-1.51 3.15h-2.1v-5c0-.5522847-.4477153-1-1-1s-1 .4477153-1 1v5h-2.12c-.63-3.23-2.88-3.54-2.88-7-.0022401-1.7101144.7253536-3.3399242 2-4.48z"/><path id="Shape" d="m19 3v-2c0-.55228475-.4477153-1-1-1s-1 .44771525-1 1v2c0 .55228475.4477153 1 1 1s1-.44771525 1-1z"/><path id="Shape" d="m29 15h2c.5522847 0 1-.4477153 1-1s-.4477153-1-1-1h-2c-.5522847 0-1 .4477153-1 1s.4477153 1 1 1z"/><path id="Shape" d="m7 13h-2c-.55228475 0-1 .4477153-1 1s.44771525 1 1 1h2c.55228475 0 1-.4477153 1-1s-.44771525-1-1-1z"/><path id="Shape" d="m27.9 22.49-1.41-1.42c-.3921222-.3921222-1.0278778-.3921222-1.42 0s-.3921222 1.0278778 0 1.42l1.42 1.41c.2443899.2853762.6281184.4096819.993419.3218101.3653005-.0878718.6505193-.3730906.7383911-.7383911.0878718-.3653006-.0364339-.7490291-.3218101-.993419z"/><path id="Shape" d="m9.51 6.93c.25365857.25365857.623374.35272352.969878.25987804.3465041-.09284548.6171546-.36349595.71-.71.0928455-.34650405-.0062194-.71621947-.259878-.96987804l-1.42-1.41c-.24438988-.28537616-.6281184-.40968194-.99341897-.32181013-.36530058.0878718-.65051936.37309058-.73839116.73839116-.08787181.36530057.03643397.74902909.32181013.99341897z"/><path id="Shape" d="m9.51 23.9 1.42-1.41c.3921222-.3921222.3921222-1.0278778 0-1.42s-1.02787783-.3921222-1.42 0l-1.41 1.42c-.3397768.3967603-.31693227.9881942.05243678 1.3575632.36936905.3693691.96080294.3922136 1.35756322.0524368z"/><path id="Shape" d="m26.49 4.1-1.42 1.41c-.3921222.39212217-.3921222 1.02787783 0 1.42s1.0278778.39212217 1.42 0l1.41-1.42c.3397768-.39676028.3169323-.98819417-.0524368-1.35756322-.369369-.36936905-.9608029-.39221358-1.3575632-.05243678z"/><path id="Shape" d="m5 27c0 .5522847.44771525 1 1 1h4c.5522847 0 1-.4477153 1-1s-.4477153-1-1-1h-4c-.55228475 0-1 .4477153-1 1z"/><path id="Shape" d="m27 26h-1c-.5522847 0-1 .4477153-1 1s.4477153 1 1 1h1c.5522847 0 1-.4477153 1-1s-.4477153-1-1-1z"/><path id="Shape" d="m6 33h4c.5522847 0 1-.4477153 1-1s-.4477153-1-1-1h-4c-.55228475 0-1 .4477153-1 1s.44771525 1 1 1z"/><path id="Shape" d="m6 43h11.11c.5522847 0 1-.4477153 1-1s-.4477153-1-1-1h-11.11c-.55228475 0-1 .4477153-1 1s.44771525 1 1 1z"/><path id="Shape" d="m6 48h8.5c.5522847 0 1-.4477153 1-1s-.4477153-1-1-1h-8.5c-.55228475 0-1 .4477153-1 1s.44771525 1 1 1z"/><path id="Shape" d="m6 53h6.36c.5522847 0 1-.4477153 1-1s-.4477153-1-1-1h-6.36c-.55228475 0-1 .4477153-1 1s.44771525 1 1 1z"/><path id="Shape" d="m6 38h16.11c.5522847 0 1-.4477153 1-1s-.4477153-1-1-1h-16.11c-.55228475 0-1 .4477153-1 1s.44771525 1 1 1z"/><path id="Shape" d="m43 22.42c-2.39 0-3.44 1.37-5 2.88l-.71-.71c-1.1712702-1.1698135-3.0687298-1.1698135-4.24 0l-6.31 6.41c-.3397768.3967603-.3169323.9881942.0524368 1.3575632.369369.3693691.9608029.3922136 1.3575632.0524368l6.36-6.41c.1877666-.1893127.4433625-.2957983.71-.2957983s.5222334.1064856.71.2957983l.71.71c-18.83 18.82-17.77 17.7-17.9 18-.4.81 1.43-3.34-4.24 9.89-.135177.3097238-.1047807.6667679.080807.949184s.5012577.4519946.839193.450816c.3 0-.47.29 10.3-4.32.4-.18.22-.13 20.82-20.72 1.4337684-1.4301419 1.8633014-3.5838944 1.0878431-5.4546329-.7754583-1.8707384-2.6027543-3.0889903-4.6278431-3.0853671zm-25.67 30.68 2.67-6.25 3.57 3.57zm8-3.76-4.25-4.24 14.85-14.85 4.24 4.24zm19.8-19.8-3.53 3.54-4.25-4.24 3.54-3.54c1.1884135-1.1276288 3.0515865-1.1276288 4.24 0 1.1670557 1.1740273 1.1625805 3.0714907-.01 4.24z"/></g></g></svg>