<svg height="512" viewBox="0 0 64 64" width="512" xmlns="http://www.w3.org/2000/svg"><g fill="#78b9eb"><path d="m53 42h3a4.985 4.985 0 0 1 -5 5h-3a4.985 4.985 0 0 1 5-5z"/><path d="m48 52h-4a4 4 0 0 1 -4-4h4a4 4 0 0 1 4 4z"/><path d="m33.5 46.63a10 10 0 0 0 -6.48 8.78c-.32-.01-.66-.01-1.02-.01a26.261 26.261 0 0 0 -6 .6 10.006 10.006 0 0 1 13.5-9.37z"/><path d="m15.95 56.55c-.57.03-1.22.05-1.95.05a29.211 29.211 0 0 1 -3.1-.14 9.978 9.978 0 0 0 -6.4-5.14 9.846 9.846 0 0 1 2.5-.32 9.971 9.971 0 0 1 7.93 3.92 8.576 8.576 0 0 1 1.02 1.63z"/><path d="m20 56a25.446 25.446 0 0 1 -4.05.55 8.576 8.576 0 0 0 -1.02-1.63 9.977 9.977 0 0 0 -7.43-8.6 9.846 9.846 0 0 1 2.5-.32 10 10 0 0 1 10 10z"/><path d="m26.86 30.04c.77 1.32 3.22 2.32 3.22 3.96s-2.45 2.64-3.22 3.96c-.79 1.37-.45 3.98-1.82 4.77-1.32.77-3.4-.81-5.04-.81s-3.72 1.58-5.04.81c-1.37-.79-1.03-3.4-1.82-4.77-.77-1.32-3.22-2.32-3.22-3.96s2.45-2.64 3.22-3.96c.79-1.37.45-3.98 1.82-4.77 1.32-.77 3.4.81 5.04.81s3.72-1.58 5.04-.81c1.37.79 1.03 3.4 1.82 4.77zm-3.86 3.96a3 3 0 1 0 -3 3 3 3 0 0 0 3-3z"/><path d="m61 56.59v4.41h-58v-5.59c3.9.1 4.97.76 7.9 1.05a29.211 29.211 0 0 0 3.1.14c.73 0 1.38-.02 1.95-.05a25.446 25.446 0 0 0 4.05-.55 26.261 26.261 0 0 1 6-.6c.36 0 .7 0 1.02.01 4.99.13 5.33 1.19 10.97 1.19 5.25 0 5.91-.92 10.01-1.15.59-.03 1.25-.05 2-.05 5.65 0 5.98 1.06 11 1.19z"/><path d="m23 5h5v8h-5z"/><path d="m38 4h17v23h-17z"/></g><path d="m57 6h-1v-2a1 1 0 0 0 -1-1h-17a1 1 0 0 0 -1 1v3.72l-8-2.02v-.7a1 1 0 0 0 -1-1h-5a1 1 0 0 0 -1 1v8a1 1 0 0 0 1 1h5a.988.988 0 0 0 .93-.65l8.07 9.57v4.08a1 1 0 0 0 1 1h17a1 1 0 0 0 1-1v-6h1a5 5 0 0 0 5-5v-5a5 5 0 0 0 -5-5zm-30 6h-3v-6h3zm10 7.81-8-9.48v-2.57l8 2.02zm17-12.81h-11v2h11v17h-15v-17h2v-2h-2v-2h15zm6 9a3.009 3.009 0 0 1 -3 3h-1v-11h1a3.009 3.009 0 0 1 3 3z" fill="#006df0"/><path d="m24 34a4 4 0 1 0 -4 4 4 4 0 0 0 4-4zm-6 0a2 2 0 1 1 2 2 2 2 0 0 1 -2-2z" fill="#006df0"/><path d="m61.026 55.59a24.7 24.7 0 0 1 -4.822-.569 27.23 27.23 0 0 0 -6.204-.621c-.354 0-.683.006-1 .013v-6.413h2a6.006 6.006 0 0 0 6-6 1 1 0 0 0 -1-1h-3a6.006 6.006 0 0 0 -6 6v1.026a4.948 4.948 0 0 0 -3-1.026h-4a1 1 0 0 0 -1 1 5.006 5.006 0 0 0 5 5h3v1.523a27.711 27.711 0 0 0 -3.2.5 25.274 25.274 0 0 1 -5.806.581 25.208 25.208 0 0 1 -5.809-.582 26.779 26.779 0 0 0 -4.03-.559 8.976 8.976 0 0 1 5.7-6.893 1 1 0 0 0 0-1.872 10.99 10.99 0 0 0 -12.855 4.002v-6.587c.263.08.534.173.8.268 1.2.423 2.553.9 3.738.215 1.22-.7 1.483-2.146 1.714-3.417a6.069 6.069 0 0 1 .471-1.718 5.773 5.773 0 0 1 1.206-1.2c1.006-.843 2.147-1.8 2.147-3.262s-1.141-2.419-2.147-3.262a5.773 5.773 0 0 1 -1.206-1.2 6.029 6.029 0 0 1 -.47-1.718c-.232-1.27-.5-2.712-1.715-3.417-1.184-.687-2.542-.208-3.738.215a6.291 6.291 0 0 1 -1.8.461 6.291 6.291 0 0 1 -1.8-.461c-1.2-.423-2.553-.9-3.738-.215-1.22.705-1.483 2.146-1.714 3.417a6.069 6.069 0 0 1 -.471 1.718 5.773 5.773 0 0 1 -1.206 1.2c-1.006.843-2.147 1.8-2.147 3.262s1.141 2.419 2.147 3.262a5.773 5.773 0 0 1 1.206 1.2 6.029 6.029 0 0 1 .47 1.718c.232 1.27.495 2.712 1.715 3.417a2.622 2.622 0 0 0 1.345.344 7.479 7.479 0 0 0 2.393-.559c.27-.095.541-.188.8-.268v6.587a10.99 10.99 0 0 0 -9-4.7 10.823 10.823 0 0 0 -2.754.354 1 1 0 0 0 0 1.935 8.974 8.974 0 0 1 5.621 4.411 10.963 10.963 0 0 0 -8.621-1.342 1 1 0 0 0 0 1.935 8.952 8.952 0 0 1 4.56 2.85l-.62-.122a26.63 26.63 0 0 0 -5.166-.607 1.1 1.1 0 0 0 -.723.284 1 1 0 0 0 -.3.716v5.586a1 1 0 0 0 1 1h58.003a1 1 0 0 0 1-1v-4.41a1 1 0 0 0 -.974-1zm-17.026-4.59a3.006 3.006 0 0 1 -2.829-2h2.829a3.006 3.006 0 0 1 2.829 2zm9-8h1.874a4.008 4.008 0 0 1 -3.874 3h-1.874a4.008 4.008 0 0 1 3.874-3zm-23 4q.321 0 .638.021a10.984 10.984 0 0 0 -4.507 7.379h-.131a27.382 27.382 0 0 0 -4.907.376 9.007 9.007 0 0 1 8.907-7.776zm-12.469-5.5c-.79.277-1.686.591-2.072.37-.419-.243-.594-1.2-.748-2.045a7.342 7.342 0 0 0 -.706-2.361 7.054 7.054 0 0 0 -1.654-1.731c-.7-.589-1.431-1.2-1.431-1.728s.727-1.139 1.431-1.728a7.031 7.031 0 0 0 1.649-1.736 7.3 7.3 0 0 0 .707-2.361c.154-.845.329-1.8.748-2.045a.712.712 0 0 1 .354-.075 6.242 6.242 0 0 1 1.718.445 7.607 7.607 0 0 0 2.473.575 7.607 7.607 0 0 0 2.469-.575c.789-.278 1.684-.592 2.072-.37.419.243.594 1.2.748 2.045a7.342 7.342 0 0 0 .711 2.361 7.054 7.054 0 0 0 1.654 1.731c.7.589 1.431 1.2 1.431 1.728s-.727 1.139-1.431 1.728a7.031 7.031 0 0 0 -1.654 1.731 7.3 7.3 0 0 0 -.707 2.361c-.154.845-.329 1.8-.748 2.045-.389.221-1.283-.092-2.072-.37a7.607 7.607 0 0 0 -2.473-.575 7.607 7.607 0 0 0 -2.469.58zm-6.046 5.627a9.02 9.02 0 0 1 7.478 8.063 22.274 22.274 0 0 1 -2.446.324 9.356 9.356 0 0 0 -.638-.978 10.994 10.994 0 0 0 -4.394-7.414zm2.664 8.423c.014.016.024.036.037.052-.064 0-.12 0-.186 0-.95 0-1.768-.031-2.5-.09a10.95 10.95 0 0 0 -3.01-3.39 8.928 8.928 0 0 1 5.659 3.423zm45.851 4.45h-56v-3.548a24.649 24.649 0 0 1 3.8.527 28.972 28.972 0 0 0 2.993.475 30.3 30.3 0 0 0 3.207.146c.75 0 1.417-.021 2.006-.052a26.259 26.259 0 0 0 4.19-.568 25.316 25.316 0 0 1 5.804-.58c.36.009.679 0 .994.01a24.42 24.42 0 0 1 4.8.569 27.213 27.213 0 0 0 6.2.621 27.21 27.21 0 0 0 6.2-.621 24.524 24.524 0 0 1 3.863-.53c.575-.03 1.218-.049 1.949-.049a25.294 25.294 0 0 1 5.812.581 26.655 26.655 0 0 0 4.188.57z" fill="#006df0"/><path d="m19 17h2v2h-2z" fill="#006df0"/><path d="m15 14h2v2h-2z" fill="#006df0"/><path d="m17 9h2v2h-2z" fill="#006df0"/><path d="m14 6h2v2h-2z" fill="#006df0"/><path d="m14 20h2v2h-2z" fill="#006df0"/></svg>