<svg height="512pt" viewBox="0 -27 512 511" width="512pt" xmlns="http://www.w3.org/2000/svg"><g fill-rule="evenodd"><path d="m253.152344 368.601562h-74.066406l-9.78125 40.695313h93.597656zm0 0" fill="#adaaaf"/><path d="m262.902344 409.296875h-120.382813c-10.515625 0-19.105469 8.613281-19.105469 19.097656 0 10.515625 8.589844 19.101563 19.105469 19.101563h147.167969c10.515625 0 19.105469-8.585938 19.105469-19.101563 0-10.484375-8.589844-19.097656-19.105469-19.097656zm0 0" fill="#d7d6d8"/><path d="m367.523438 368.601562c5.21875 6.828126 11.027343 13.203126 17.179687 19.070313 4.335937 4.167969 29.308594 25.363281 36.253906 25.902344 12.613281.964843 52.039063-36.726563 64.769531-59.398438 15.816407-28.199219 18.59375-71.699219 14.652344-111.289062l-78.175781-30.492188-11.960937 4.535157-66.980469 25.363281c-1.839844 12.582031-1.160157 48.316406-.425781 62.148437.285156 5.636719 1.019531 11.109375 2.128906 16.40625 3.796875 17.96875 11.957031 33.867188 22.558594 47.753906zm0 0" fill="#cbe558"/><path d="m215.960938 320.847656h-205.957032v16.238282c0 17.34375 14.175782 31.511718 31.519532 31.511718h326c-10.601563-13.882812-18.765626-29.78125-22.5625-47.75zm0 0" fill="#d7d6d8"/><path d="m471.183594 10.507812h-389.945313c-16.953125 0-30.785156 13.375-30.785156 29.726563v103.949219c0 16.351562 13.832031 29.726562 30.785156 29.726562h389.945313c16.953125 0 30.8125-13.375 30.8125-29.726562v-103.949219c0-16.351563-13.863282-29.726563-30.8125-29.726563zm0 0" fill="#579fff"/><path d="m422.203125 173.910156h-340.964844c-16.953125 0-30.785156-13.375-30.785156-29.726562v-67.589844h-8.929687c-17.34375 0-31.519532 14.195312-31.519532 31.511719v212.742187h334.957032c-1.105469-5.296875-1.839844-10.769531-2.125-16.40625-.738282-13.832031-1.417969-49.566406.425781-62.148437l66.980469-25.363281 11.960937-4.535157zm0 0" fill="#f9f9f9"/></g><path d="m399.621094 306.769531c-3.972656-3.839843-10.304688-3.734375-14.148438.238281-3.839844 3.972657-3.730468 10.308594.242188 14.148438l15.363281 14.847656c1.867187 1.804688 4.359375 2.8125 6.953125 2.8125h.175781c2.65625-.050781 5.183594-1.148437 7.027344-3.0625l46.96875-48.742187c3.832031-3.980469 3.71875-10.3125-.261719-14.148438-3.980468-3.832031-10.3125-3.714843-14.148437.265625l-40.015625 41.523438zm0 0"/><path d="m471.183594 183.914062c22.503906 0 40.816406-17.824218 40.816406-39.734374v-103.945313c0-21.910156-18.308594-39.734375-40.816406-39.734375h-389.945313c-22.492187 0-40.789062 17.824219-40.789062 39.734375v26.378906c-22.398438.578125-40.449219 18.960938-40.449219 41.492188v228.980469c0 22.894531 18.628906 41.519531 41.523438 41.519531h124.867187l-4.96875 20.683593h-18.902344c-16.050781 0-29.109375 13.058594-29.109375 29.109376 0 16.046874 13.058594 29.105468 29.109375 29.105468h147.167969c16.050781 0 29.109375-13.058594 29.109375-29.105468 0-16.050782-13.058594-29.109376-29.109375-29.109376h-18.894531l-4.957031-20.683593h96.847656c4.527344 5.554687 9.550781 10.988281 15.085937 16.285156 2.621094 2.511719 10.324219 9.132813 17.980469 15.023437 14.917969 11.476563 20.558594 13.335938 24.445312 13.636719.410157.03125.921876.070313 1.554688.070313 4.546875 0 15.257812-2.027344 38.367188-23.5625 14.644531-13.648438 27.800781-29.351563 34.332031-40.988282 20.355469-36.289062 18.691406-88.988281 15.886719-117.171874-.375-3.746094-2.816407-6.964844-6.320313-8.332032l-71.808594-28.007812v-21.644532zm-172.394532 244.480469c0 5.015625-4.082031 9.097657-9.101562 9.097657h-147.167969c-5.015625 0-9.097656-4.082032-9.097656-9.097657s4.082031-9.09375 9.097656-9.09375h26.746094c.015625 0 .03125.003907.046875.003907.023438 0 .046875-.003907.070312-.003907h93.441407c.023437 0 .046875.003907.070312.003907.015625 0 .03125-.003907.050781-.003907h26.742188c5.019531 0 9.101562 4.082031 9.101562 9.09375zm-48.570312-29.105469h-68.21875l4.972656-20.683593h58.289063zm226.78125-50.011718c-5.234375 9.324218-16.636719 22.964844-29.042969 34.746094-14.640625 13.90625-23.347656 18.550781-26.128906 19.425781-6.148437-2.699219-24.566406-17.585938-30.210937-23.007813-24.277344-23.226562-37.332032-48.976562-38.789063-76.535156-.691406-12.914062-1.140625-40.167969-.214844-54.457031l69.539063-26.335938 68.820312 26.84375c3.355469 41.421875-1.664062 77.378907-13.972656 99.320313zm-64.804688-143.792969-72.476562 27.453125c-3.398438 1.285156-5.832031 4.308594-6.355469 7.90625-2.054687 14.03125-1.214843 51.054688-.519531 64.125.105469 1.96875.261719 3.925781.460938 5.875h-77.460938c-5.527344 0-10.003906 4.480469-10.003906 10.007812 0 5.523438 4.476562 10.003907 10.003906 10.003907h81.304688c2.699218 9.511719 6.613281 18.765625 11.738281 27.742187h-307.363281c-11.863282 0-21.511719-9.648437-21.511719-21.507812v-6.234375h157.484375c5.527344 0 10.007812-4.476563 10.007812-10.003907 0-5.527343-4.480468-10.003906-10.007812-10.003906h-157.484375v-202.742187c0-11.496094 9.074219-20.886719 20.4375-21.453125v57.527344c0 21.910156 18.296875 39.734374 40.789062 39.734374h175.199219c5.527344 0 10.007812-4.480468 10.007812-10.003906 0-5.527344-4.480468-10.007812-10.007812-10.007812h-175.199219c-11.457031 0-20.777343-8.84375-20.777343-19.722656v-103.945313c0-10.875 9.320312-19.722656 20.777343-19.722656h389.945313c11.472656 0 20.804687 8.847656 20.804687 19.722656v103.945313c0 10.878906-9.332031 19.722656-20.804687 19.722656h-134.894532c-5.527343 0-10.007812 4.480468-10.007812 10.007812 0 5.523438 4.480469 10.003906 10.007812 10.003906h75.910157v21.570313zm0 0"/><path d="m367.355469 109.835938c-2.695313 0-5.015625.992187-6.945313 2.832031-1.957031 1.898437-2.949218 4.222656-2.949218 6.945312 0 2.664063 1.019531 4.988281 2.808593 6.914063l.054688.054687c1.957031 1.871094 4.308593 2.835938 7.03125 2.835938 2.664062 0 4.929687-.992188 6.828125-2.863281 1.871094-1.871094 2.835937-4.164063 2.835937-6.828126 0-2.695312-.933593-5.046874-2.835937-6.972656-1.867188-1.929687-4.164063-2.917968-6.828125-2.917968zm0 0"/><path d="m422.796875 120.941406c0 11.421875 14.457031 13.546875 18.027344 4.28125l27.640625-68.554687c.421875-.964844.621094-1.984375.621094-3.003907 0-4.875-2.691407-9.097656-7.679688-9.945312-4.480469-.765625-8.902344 1.613281-10.460938 5.921875l-27.550781 68.410156c-.398437.910157-.597656 1.871094-.597656 2.890625zm0 0"/><path d="m339.121094 109.269531c0-6.292969-2.4375-11.394531-7.878906-14.710937-3.34375-2.125-7.738282-3.484375-11.5625-4.5625-1.449219-.394532-5.074219-1.386719-6.238282-2.179688-.394531-.339844-.878906-.824218-.878906-1.363281 0-.820313.425781-1.359375 1.050781-1.839844.992188-.738281 2.152344-.992187 3.34375-.992187 1.246094 0 2.691407.367187 3.882813.707031l2.210937.738281c1.445313.480469 3.230469 1.046875 4.761719 1.046875 2.125 0 3.941406-.820312 5.386719-2.378906 1.390625-1.53125 2.097656-3.398437 2.097656-5.46875 0-3.597656-2.4375-6.066406-5.441406-7.679687-3.601563-1.953126-7.796875-2.605469-11.878907-2.605469-5.953124 0-11.507812 1.558593-16.097656 5.441406-4.339844 3.710937-6.519531 8.5-6.519531 14.195313 0 5.441406 2.011719 10.003906 6.660156 13.035156 3.117188 2.042968 7.824219 3.402344 11.421875 4.449218 2.210938.625 4.535156 1.304688 6.632813 2.242188.484375.226562 1.191406.59375 1.476562 1.074219.253907.484375.367188 1.050781.367188 1.617187 0 1.1875-.480469 2.039063-1.417969 2.746094-1.246094.9375-2.71875 1.277344-4.25 1.277344-2.4375 0-5.246094-.878906-7.539062-1.699219-1.730469-.625-4.367188-1.589844-6.210938-1.589844-2.097656 0-3.910156.796875-5.328125 2.351563-1.417969 1.5625-2.039063 3.488281-2.039063 5.585937v.394531c0 3.996094 3.089844 6.492188 6.402344 8.050782 4.339844 2.066406 9.328125 2.691406 14.089844 2.691406 6.207031 0 12.21875-1.503906 16.949219-5.667969 4.449219-3.941406 6.546875-9.015625 6.546875-14.90625zm0 0"/><path d="m174.066406 70.980469h-3.769531l.085937-8.191407c0-2.464843-.851562-4.589843-2.664062-6.230468-1.671875-1.671875-3.710938-2.636719-6.09375-2.636719-2.4375 0-4.5625.878906-6.292969 2.605469-1.699219 1.699218-2.578125 3.828125-2.578125 6.261718v8.191407h-1.558594c-2.210937 0-4.167968.738281-5.785156 2.265625-1.640625 1.503906-2.464844 3.429687-2.464844 5.667968 0 2.183594.824219 4.027344 2.324219 5.585938 1.585938 1.699219 3.628907 2.464844 5.925781 2.464844h1.671876v33.015625c0 1.191406.167968 2.378906.621093 3.484375.425781 1.078125 1.078125 2.011718 1.902344 2.835937 1.671875 1.726563 3.796875 2.636719 6.234375 2.636719 2.464844 0 4.59375-.851562 6.292969-2.664062 1.644531-1.757813 2.464843-3.882813 2.464843-6.320313l-.113281-32.875h3.714844c2.238281 0 4.167969-.820313 5.753906-2.40625 1.558594-1.53125 2.378907-3.429687 2.378907-5.640625s-.761719-4.140625-2.320313-5.726562c-1.5625-1.558594-3.519531-2.324219-5.730469-2.324219zm0 0"/><path d="m104.195312 72.257812v-17.117187c0-2.464844-.90625-4.535156-2.632812-6.234375-1.757812-1.703125-3.773438-2.636719-6.238281-2.636719-2.4375 0-4.5625.90625-6.320313 2.636719-1.699218 1.726562-2.636718 3.796875-2.636718 6.234375v65.039063c0 2.40625.9375 4.503906 2.636718 6.203124 1.757813 1.757813 3.882813 2.636719 6.320313 2.636719s4.566406-.847656 6.292969-2.578125c1.730468-1.730468 2.578124-3.828125 2.578124-6.261718v-26.867188c0-2.265625.824219-4.136719 2.46875-5.695312 1.644532-1.617188 3.625-2.382813 5.921876-2.382813 2.238281 0 4.082031.824219 5.640624 2.410156 1.558594 1.617188 2.355469 3.515625 2.355469 5.78125v26.753907c0 2.464843.90625 4.589843 2.636719 6.316406 1.753906 1.730468 3.882812 2.636718 6.320312 2.636718 2.464844 0 4.589844-.851562 6.234376-2.664062 1.730468-1.730469 2.636718-3.855469 2.636718-6.289062v-29.304688c0-18.902344-18.878906-27.65625-34.214844-18.617188zm0 0"/><path d="m286.882812 88.324219c-.511718-1.585938-1.277343-3.089844-2.15625-4.535157-1.21875-1.980468-2.664062-3.796874-4.308593-5.4375-5.328125-5.328124-11.761719-8.023437-19.273438-8.023437-5.015625 0-9.722656 1.164063-14.03125 3.574219-2.042969-3.34375-6.773437-4.960938-10.460937-3.796875-4.082032 1.273437-5.554688 5.15625-5.554688 9.125v63.195312c0 2.492188.824219 4.648438 2.636719 6.347657 1.757813 1.730468 3.855469 2.632812 6.320313 2.632812 2.464843 0 4.507812-.90625 6.234374-2.664062 1.675782-1.726563 2.636719-3.765626 2.636719-6.203126v-20.320312c3.828125 1.8125 7.9375 2.664062 12.21875 2.664062 7.539063 0 14.085938-2.523437 19.417969-7.878906 5.328125-5.328125 7.878906-11.871094 7.878906-19.410156 0-3.148438-.480468-6.292969-1.558594-9.269531zm-25.992187 19.496093c-5.839844 0-10.542969-4.703124-10.542969-10.511718 0-5.839844 4.703125-10.542969 10.542969-10.542969 5.808594 0 10.515625 4.703125 10.515625 10.542969 0 5.808594-4.707031 10.511718-10.515625 10.511718zm0 0"/><path d="m216.160156 70.980469h-3.796875l.085938-8.191407c0-2.464843-.851563-4.589843-2.636719-6.230468-1.703125-1.671875-3.742188-2.636719-6.125-2.636719-2.4375 0-4.535156.878906-6.261719 2.605469-1.730469 1.699218-2.609375 3.828125-2.609375 6.261718v8.191407h-1.53125c-2.210937 0-4.167968.738281-5.78125 2.265625-1.644531 1.503906-2.464844 3.429687-2.464844 5.667968 0 2.183594.820313 4.027344 2.296876 5.585938 1.613281 1.699219 3.625 2.464844 5.949218 2.464844h1.644532v33.015625c0 1.191406.199218 2.378906.652343 3.484375.425781 1.078125 1.078125 2.011718 1.898438 2.835937 1.671875 1.726563 3.773437 2.636719 6.210937 2.636719 2.464844 0 4.617188-.851562 6.292969-2.664062 1.671875-1.757813 2.492187-3.882813 2.464844-6.320313l-.085938-32.875h3.6875c2.238281 0 4.191407-.820313 5.753907-2.40625 1.558593-1.53125 2.40625-3.429687 2.40625-5.640625s-.765626-4.140625-2.351563-5.726562c-1.558594-1.558594-3.488281-2.324219-5.699219-2.324219zm0 0"/><path d="m404.96875 123.183594 27.636719-68.582032c.425781-.9375.625-1.957031.625-2.976562 0-4.902344-2.664063-9.097656-7.683594-9.945312-4.480469-.765626-8.871094 1.613281-10.457031 5.921874l-27.523438 68.410157c-.398437.90625-.625 1.871093-.625 2.890625 0 11.394531 14.457032 13.546875 18.027344 4.28125zm0 0"/><path d="m367.355469 96.828125c2.664062 0 4.988281-.90625 6.886719-2.777344 1.871093-1.898437 2.777343-4.222656 2.777343-6.886719 0-2.664062-.960937-4.960937-2.832031-6.828124-1.898438-1.902344-4.167969-2.863282-6.832031-2.863282-2.664063 0-4.988281.933594-6.972657 2.71875-2.039062 1.84375-3.03125 4.195313-3.03125 6.972656 0 2.75.992188 5.101563 3.03125 6.972657 1.984376 1.753906 4.308594 2.691406 6.972657 2.691406zm0 0"/><path d="m296.546875 163.90625h-.195313c-5.527343 0-10.007812 4.476562-10.007812 10.003906 0 5.523438 4.480469 10.003906 10.007812 10.003906h.195313c5.527344 0 10.007813-4.476562 10.007813-10.003906s-4.480469-10.003906-10.007813-10.003906zm0 0"/><path d="m216.105469 310.84375h-.199219c-5.527344 0-10.003906 4.480469-10.003906 10.003906 0 5.527344 4.476562 10.007813 10.003906 10.007813h.199219c5.523437 0 10.003906-4.480469 10.003906-10.007813 0-5.523437-4.480469-10.003906-10.003906-10.003906zm0 0"/></svg>