<svg height="512" viewBox="0 0 64 64" width="512" xmlns="http://www.w3.org/2000/svg"><g id="Tic_tac_toe" data-name="Tic tac toe"><g fill="#57a4ff"><path d="m25 5 14 14"/><path d="m39 5-14 14"/><path d="m5 5 14 14"/><path d="m19 5-14 14"/><path d="m5 25 14 14"/><path d="m19 25-14 14"/><path d="m48 48 11 11"/><path d="m59 45-14 14"/><path d="m45 45 1 1"/><path d="m22 22h20v20h-20z"/><path d="m42 2h20v20h-20z"/><path d="m22 42h20v20h-20z"/></g><path d="m61 1h-58a2 2 0 0 0 -2 2v58a2 2 0 0 0 2 2h58a2 2 0 0 0 2-2v-58a2 2 0 0 0 -2-2zm-58 22h18v18h-18zm20 0h18v18h-18zm20 0h18v18h-18zm18-20v18h-18v-18zm-20 0v18h-18v-18zm-38 0h18v18h-18zm0 58v-18h18v18zm20 0v-18h18v18zm20 0v-18h18v18z" fill="#004fac"/><path d="m32 24a8 8 0 1 0 8 8 8.009 8.009 0 0 0 -8-8zm0 14a6 6 0 1 1 6-6 6.006 6.006 0 0 1 -6 6z" fill="#004fac"/><path d="m52 20a8 8 0 1 0 -8-8 8.009 8.009 0 0 0 8 8zm0-14a6 6 0 1 1 -6 6 6.006 6.006 0 0 1 6-6z" fill="#004fac"/><path d="m32 44a8 8 0 1 0 8 8 8.009 8.009 0 0 0 -8-8zm0 14a6 6 0 1 1 6-6 6.006 6.006 0 0 1 -6 6z" fill="#004fac"/><path d="m24.293 19.707a1 1 0 0 0 1.414 0l6.293-6.293 6.293 6.293a1 1 0 0 0 1.414-1.414l-6.293-6.293 6.293-6.293a1 1 0 1 0 -1.414-1.414l-6.293 6.293-6.293-6.293a1 1 0 0 0 -1.414 1.414l6.293 6.293-6.293 6.293a1 1 0 0 0 0 1.414z" fill="#004fac"/><path d="m13.414 12 6.293-6.293a1 1 0 1 0 -1.414-1.414l-6.293 6.293-6.293-6.293a1 1 0 0 0 -1.414 1.414l6.293 6.293-6.293 6.293a1 1 0 1 0 1.414 1.414l6.293-6.293 6.293 6.293a1 1 0 0 0 1.414-1.414z" fill="#004fac"/><path d="m13.414 32 6.293-6.293a1 1 0 0 0 -1.414-1.414l-6.293 6.293-6.293-6.293a1 1 0 0 0 -1.414 1.414l6.293 6.293-6.293 6.293a1 1 0 1 0 1.414 1.414l6.293-6.293 6.293 6.293a1 1 0 0 0 1.414-1.414z" fill="#004fac"/><path d="m59.707 44.293a1 1 0 0 0 -1.414 0l-6.293 6.293-3.293-3.293a1 1 0 0 0 -1.414 1.414l3.293 3.293-6.293 6.293a1 1 0 1 0 1.414 1.414l6.293-6.293 6.293 6.293a1 1 0 0 0 1.414-1.414l-6.293-6.293 6.293-6.293a1 1 0 0 0 0-1.414z" fill="#004fac"/><path d="m45.293 46.707a1 1 0 0 0 1.414-1.414l-1-1a1 1 0 0 0 -1.414 1.414z" fill="#004fac"/></g></svg>