<svg height="480pt" viewBox="0 -56 480 480" width="480pt" xmlns="http://www.w3.org/2000/svg"><g fill="#bddbff"><path d="m184 328.964844h-176v32h464v-32zm0 0"/><path d="m440 296.964844h-256v32h256zm0 0"/><path d="m165.65625 64.566406 16.96875-16.976562 16.976562-16.96875-22.632812-22.621094-16.96875 16.964844-16.96875 16.96875zm0 0"/><path d="m182.625 47.589844-33.9375 33.945312 33.9375 33.941406 16.976562-16.972656 33.933594-33.9375 16.976563-16.976562-33.945313-33.9375-16.964844 16.96875zm0 0"/><path d="m199.601562 30.621094-16.976562 16.96875zm0 0"/><path d="m199.601562 98.503906 33.933594-33.9375zm0 0"/><path d="m128 296.964844h-112v32h112zm0 0"/></g><path d="m472 320.964844h-24v-24c0-4.417969-3.582031-8-8-8h-118.632812c3.402343-9.582032 12.464843-15.984375 22.632812-16h96v-16h-96c-12.640625.035156-24.511719 6.066406-32 16.25-7.488281-10.183594-19.359375-16.214844-32-16.25h-96v16h96c10.167969.015625 19.230469 6.417968 22.632812 16h-118.632812c-4.417969 0-8 3.582031-8 8v24h-40v-24c0-4.417969-3.582031-8-8-8h-72v-180.6875l75.3125-75.3125h9.375l-3.3125 3.3125c-3.121094 3.125-3.121094 8.1875 0 11.3125l16.96875 16.976562-11.3125 11.3125c-3.121094 3.125-3.121094 8.1875 0 11.3125l33.945312 33.941406c3.125 3.125 8.1875 3.125 11.3125 0l12.109376-12.117187c12.519531 7.4375 28.492187 5.4375 38.789062-4.859375 10.300781-10.300781 12.300781-26.269531 4.859375-38.789062l12.121094-12.113282c3.125-3.125 3.125-8.1875 0-11.3125l-33.945313-33.941406c-3.121094-3.125-8.1875-3.125-11.3125 0l-11.308594 11.308594-16.976562-16.964844c-3.125-3.125-8.1875-3.125-11.3125 0l-14.625 14.621094h-28.6875c-2.121094 0-4.15625.84375-5.65625 2.34375l-80 80c-1.5 1.5-2.34375 3.535156-2.34375 5.65625v184h-24c-4.417969 0-8 3.582031-8 8v24c-4.417969 0-8 3.582031-8 8v32c0 4.417968 3.582031 8 8 8h464c4.417969 0 8-3.582032 8-8v-32c0-4.417969-3.582031-8-8-8zm-244.121094-228.117188c-4.042968 4.03125-9.929687 5.601563-15.445312 4.117188l19.566406-19.566406c1.480469 5.515624-.089844 11.402343-4.121094 15.449218zm-11.3125-67.882812 22.632813 22.632812-56.558594 56.5625-22.640625-22.625zm-39.597656-5.65625 11.320312 11.3125-22.632812 22.632812-11.3125-11.320312zm15.03125 285.65625h240v16h-240zm-168 0h96v16h-96zm440 48h-448v-16h448zm0 0" fill="#3d9ae2"/><path d="m244.851562 121.132812 11.316407-11.3125 22.625 22.628907-11.3125 11.3125zm0 0" fill="#3d9ae2"/><path d="m264 72.964844h32v16h-32zm0 0" fill="#3d9ae2"/><path d="m208 128.964844h16v32h-16zm0 0" fill="#3d9ae2"/></svg>