<svg height="484pt" viewBox="-5 0 484 484.38408" width="484pt" xmlns="http://www.w3.org/2000/svg"><g fill="#bddbff"><path d="m200.191406 168-32 64c0 17.671875 14.328125 32 32 32s32-14.328125 32-32zm128 0-32 64c0 17.671875 14.328125 32 32 32s32-14.328125 32-32zm-48 0c0-8.835938-7.164062-16-16-16-8.835937 0-16 7.164062-16 16s7.164063 16 16 16c8.828125-.027344 15.972656-7.175781 16-16zm112-112v303.839844l-.238281.160156h-159.761719l-30.71875-10.238281c-11.425781-3.824219-23.394531-5.769531-35.441406-5.761719h-6.800781c-7.742188-.007812-15.464844.796875-23.039063 2.398438v-314.398438c0 13.253906 10.746094 24 24 24zm0 0"/><path d="m328.191406 168 32 64h-64zm0 0"/><path d="m280.191406 168c0 8.835938-7.164062 16-16 16-8.835937 0-16-7.164062-16-16s7.164063-16 16-16c8.835938 0 16 7.164062 16 16zm0 0"/><path d="m200.191406 168 32 64h-64zm0 0"/><path d="m72.191406 464v8h-64v-112h64zm0 0"/></g><path d="m469.113281 343.199219c-8.914062-15.210938-28.398437-20.429688-43.722656-11.710938l-25.199219 14.527344v-338.015625c0-4.417969-3.582031-8-8-8h-232c-17.671875 0-32 14.328125-32 32v308.113281c-10.796875 2.875-21.136718 7.25-30.71875 12.992188l-11.496094 6.894531h-5.785156c0-4.417969-3.582031-8-8-8h-64c-4.417968 0-8 3.582031-8 8v112c0 4.417969 3.582032 8 8 8h64c4.417969 0 8-3.582031 8-8h60.25c2.1875 0 4.371094.128906 6.542969.382812l95.367187 11.203126c4.589844.535156 9.210938.804687 13.832032.796874 21.121094 0 41.871094-5.539062 60.183594-16.0625l141.023437-81.390624c9.953125-5.675782 16.070313-16.273438 16-27.730469-.003906-5.613281-1.480469-11.132813-4.277344-16zm-404.921875 120.800781h-48v-96h48zm293.074219-93.199219c-.449219-.976562-.992187-1.878906-1.523437-2.800781h6.363281zm-197.074219-354.800781h224v32h-224c-8.835937 0-16-7.164062-16-16s7.164063-16 16-16zm-16 43.550781c4.84375 2.878907 10.367188 4.417969 16 4.449219h224v288h-150.703125l-29.527343-9.839844c-12.234376-4.082031-25.046876-6.164062-37.945313-6.160156h-6.800781c-5.023438.011719-10.039063.339844-15.023438.976562zm305.199219 313.519531-141.023437 81.425782c-19.425782 11.15625-41.921876 15.789062-64.175782 13.214844l-95.359375-11.199219c-2.785156-.332031-5.585937-.503907-8.390625-.511719h-60.25v-80h8c1.453125 0 2.875-.394531 4.121094-1.144531l13.390625-8c16.160156-9.710938 34.660156-14.84375 53.511719-14.855469h6.800781c11.179687 0 22.285156 1.800781 32.886719 5.335938l30.761718 10.257812c.816407.269531 1.667969.40625 2.527344.40625h96c8.835938 0 16 7.164062 16 16s-7.164062 16-16 16h-120v16h120c16.15625-.050781 29.726563-12.15625 31.617188-28.199219l35.40625-20.433593c.136718-.0625.25-.160157.378906-.222657l37.757812-21.792969c4.949219-2.855468 11.046876-2.859374 15.996094 0 4.949219 2.855469 8 8.132813 8.003906 13.847657.046876 5.722656-2.996093 11.023437-7.960937 13.871093zm0 0" fill="#3d9ae2"/><path d="m224.191406 96h80v16h-80zm0 0" fill="#3d9ae2"/><path d="m200.191406 272c22.082032-.027344 39.972656-17.917969 40-40 0-1.242188-.285156-2.464844-.839844-3.574219l-26.214843-52.425781h28.527343c2.421876 6.777344 7.753907 12.109375 14.527344 14.527344v97.472656h-40v16h96v-16h-40v-97.472656c6.777344-2.417969 12.109375-7.75 14.527344-14.527344h28.527344l-26.253906 52.425781c-.539063 1.113281-.8125 2.335938-.800782 3.574219 0 22.089844 17.910156 40 40 40 22.09375 0 40-17.910156 40-40 .015625-1.238281-.257812-2.460938-.800781-3.574219l-26.253906-52.425781h11.054687v-16h-65.472656c-2.417969-6.777344-7.75-12.109375-14.527344-14.527344v-9.472656h-16v9.472656c-6.773437 2.417969-12.105468 7.75-14.527344 14.527344h-65.472656v16h11.054688l-26.214844 52.425781c-.554688 1.109375-.839844 2.332031-.839844 3.574219.027344 22.082031 17.921875 39.972656 40 40zm128-86.113281 19.054688 38.113281h-38.109375zm0 70.113281c-10.128906-.046875-19.140625-6.449219-22.519531-16h45.039063c-3.375 9.550781-12.386719 15.953125-22.519532 16zm-64-96c4.417969 0 8 3.582031 8 8s-3.582031 8-8 8c-4.417968 0-8-3.582031-8-8s3.582032-8 8-8zm-64 96c-10.128906-.046875-19.140625-6.449219-22.519531-16h45.039063c-3.375 9.550781-12.386719 15.953125-22.519532 16zm-19.054687-32 19.054687-38.113281 19.054688 38.113281zm0 0" fill="#3d9ae2"/><path d="m184.191406 288h16v16h-16zm0 0" fill="#3d9ae2"/><path d="m328.191406 288h16v16h-16zm0 0" fill="#3d9ae2"/></svg>