<svg id="Capa_1" enable-background="new 0 0 512.41 512.41" height="512" viewBox="0 0 512.41 512.41" width="512" xmlns="http://www.w3.org/2000/svg"><path d="m470.435 443.62v68.79h-428.46v-68.79c0-32.16 18.79-61.77 47.88-75.47l103.27-50.4 6.58 13.48h113l6.58-13.48 103.28 50.4c29.08 13.7 47.87 43.31 47.87 75.47z" fill="#39689e"/><path d="m470.435 443.62v68.79h-214.23v-181.18h56.5l6.58-13.48 103.28 50.4c29.08 13.7 47.87 43.31 47.87 75.47z" fill="#224370"/><path d="m241.205 349.57h30v162.84h-30z" fill="#6aa9ff"/><path d="m256.205 349.57h15v162.84h-15z" fill="#7985ed"/><path d="m89.228 377.641h106.148v30h-106.148z" fill="#ffd92e" transform="matrix(.909 -.418 .418 .909 -150.938 95.274)"/><path d="m349.716 339.567h30v106.148h-30z" fill="#fdbf01" transform="matrix(.418 -.909 .909 .418 -144.34 560.112)"/><path d="m367.415 162.79v90.58c0 61.32-49.89 111.2-111.21 111.2s-111.21-49.88-111.21-111.2v-90.58c0-61.32 49.89-111.21 111.21-111.21s111.21 49.89 111.21 111.21z" fill="#f9c5b9"/><path d="m367.415 162.79v90.58c0 61.32-49.89 111.2-111.21 111.2v-312.99c61.32 0 111.21 49.89 111.21 111.21z" fill="#ffb19e"/><path d="m367.625 134.33-.85 37.16c-.1 38.22-30.99 69.27-68.95 69.27h-84.09c-38.02 0-68.95-31.15-68.95-69.45l-.05-36.98z" fill="#6aa9ff"/><path d="m367.625 134.33-.85 37.16c-.1 38.22-30.99 69.27-68.95 69.27h-41.62v-106.43z" fill="#7985ed"/><path d="m421.085 55.2-53.74 91.5h-222.61l-53.41-91.54 164.88-55.16z" fill="#39689e"/><path d="m367.345 146.7h-111.14v-146.7l164.88 55.2z" fill="#224370"/><path d="m241.205 62.29h30v30.31h-30z" fill="#f4d34e"/><path d="m256.205 62.29h15v30.31h-15z" fill="#ffa41f"/></svg>