<svg height="512" viewBox="0 0 64 64" width="512" xmlns="http://www.w3.org/2000/svg"><circle cx="52" cy="48" fill="#9bc9ff" r="9"/><path d="m32 9a16 16 0 0 0 -6 30.83v7.17h12v-7.17a16 16 0 0 0 -6-30.83zm0 28a12 12 0 1 1 12-12 12 12 0 0 1 -12 12z" fill="#9bc9ff"/><path d="m38 51h-12a2.015 2.015 0 0 0 -2 2 2.006 2.006 0 0 0 2 2h12a2.015 2.015 0 0 0 2-2 2.006 2.006 0 0 0 -2-2z" fill="#9bc9ff"/><circle cx="32" cy="25" fill="#9bc9ff" r="2"/><circle cx="12" cy="48" fill="#9bc9ff" r="9"/><g fill="#57a4ff"><path d="m39 46.184v-5.694a17 17 0 1 0 -14 0v5.694a2.972 2.972 0 0 0 -1.22 4.816 2.971 2.971 0 0 0 1.274 4.833 7 7 0 0 0 13.892 0 2.971 2.971 0 0 0 1.274-4.833 2.972 2.972 0 0 0 -1.22-4.816zm-22-21.184a15 15 0 1 1 20.625 13.9 1 1 0 0 0 -.625.93v6.17h-10v-6.17a1 1 0 0 0 -.625-.928 14.924 14.924 0 0 1 -9.375-13.902zm9 23h12a1 1 0 0 1 0 2h-12a1 1 0 0 1 0-2zm6 12a5.009 5.009 0 0 1 -4.9-4h9.8a5.009 5.009 0 0 1 -4.9 4zm6-6h-12a1 1 0 0 1 0-2h12a1 1 0 0 1 0 2z"/><path d="m12 38a10 10 0 1 0 10 10 10.011 10.011 0 0 0 -10-10zm0 18a8 8 0 1 1 8-8 8.009 8.009 0 0 1 -8 8z"/><path d="m13 42h-2v6a1 1 0 0 0 1 1h4v-2h-3z"/><path d="m52 38a10 10 0 1 0 10 10 10.011 10.011 0 0 0 -10-10zm0 18a8 8 0 1 1 8-8 8.009 8.009 0 0 1 -8 8z"/><path d="m53 42h-2v6a1 1 0 0 0 1 1h4v-2h-3z"/><path d="m31 2h2v4h-2z"/><path d="m20.5 4.813h2v4.001h-2z" transform="matrix(.866 -.5 .5 .866 -.527 11.661)"/><path d="m12.813 12.5h2v4h-2z" transform="matrix(.5 -.866 .866 .5 -5.651 19.212)"/><path d="m9 24h4v2h-4z"/><path d="m51 24h4v2h-4z"/><path d="m48.187 13.5h4v2h-4z" transform="matrix(.866 -.5 .5 .866 -.527 27.031)"/><path d="m40.5 5.813h4.001v2h-4.001z" transform="matrix(.5 -.866 .866 .5 15.352 40.215)"/><path d="m45 25a13 13 0 1 0 -13 13 13.015 13.015 0 0 0 13-13zm-24 0a11 11 0 1 1 11 11 11.013 11.013 0 0 1 -11-11z"/><path d="m32 32a7.008 7.008 0 0 1 -7-7h-2a9.01 9.01 0 0 0 9 9z"/><path d="m32 28a3 3 0 0 0 2.816-2h3.184v-2h-3.184a3 3 0 0 0 -1.816-1.816v-5.184h-2v5.184a2.993 2.993 0 0 0 1 5.816zm0-4a1 1 0 1 1 -1 1 1 1 0 0 1 1-1z"/></g></svg>