<svg height="512" viewBox="0 0 50 60" width="512" xmlns="http://www.w3.org/2000/svg"><g id="Page-1" fill="none" fill-rule="evenodd"><g id="077---Podcast" fill-rule="nonzero"><circle id="Oval" cx="25" cy="25" fill="#e8edfc" r="7"/><path id="Shape" d="m25 18c-.5044849.0007873-1.0074065.0561087-1.5.165 3.2064126.7087816 5.4891145 3.5511831 5.4891145 6.835s-2.2827019 6.1262184-5.4891145 6.835c2.6211486.579393 5.3427728-.3912156 7.0057888-2.4984637 1.663016-2.107248 1.9744743-4.9799318.8017312-7.3946348-1.172743-2.4147029-3.6231022-3.9460614-6.30752-3.9419015z" fill="#cad9fc"/><path id="Shape" d="m41 25c.0043835 3.8369583-1.381053 7.5456651-3.9 10.44-.8816497-1.0158408-1.9600185-1.8424768-3.17-2.43 4.3150268-4.8070778 4.0504913-12.1673491-.5984984-16.6522513-4.6489898-4.4849021-12.0140134-4.4849021-16.6630032 0-4.6489897 4.4849022-4.9135252 11.8451735-.5984984 16.6522513-1.2099815.5875232-2.2883503 1.4141592-3.17 2.43-4.63398704-5.3707457-5.17622072-13.1522935-1.3318892-19.1138252 3.8443314-5.9615317 11.1563967-8.67818511 17.9606345-6.67291902 6.8042379 2.00526612 11.4743714 8.25317422 11.4712547 15.34674422z" fill="#a4c2f7"/><path id="Shape" d="m25 9c-.506 0-1.006.03-1.5.076 8.2122686.78318317 14.4873133 7.6744806 14.5 15.924.0004311 3.147206-.9371423 6.2231292-2.693 8.835.6591755.460123 1.2610965.9972528 1.793 1.6 4.0942999-4.7314102 5.0503634-11.4171593 2.4462254-17.1064475-2.6041379-5.6892882-8.28927-9.33518611-14.5462254-9.3285525z" fill="#7facfa"/><path id="Shape" d="m49 25c-.0020711 7.5935583-3.6000328 14.7375524-9.7 19.26l.03-.14c.3603606-1.6531373.2915082-3.3710057-.2-4.99 5.7270739-5.7172575 7.4444796-14.3223043 4.3508714-21.8000042-3.0936081-7.47769995-10.3885041-12.35425664-18.4808714-12.35425664s-15.38726325 4.87655669-18.48087142 12.35425664c-3.09360816 7.4776999-1.37620243 16.0827467 4.35087142 21.8000042-.4915082 1.6189943-.5603606 3.3368627-.2 4.99l.03.14c-9.07806131-6.7351009-12.22594977-18.8917939-7.5576155-29.1864253 4.66833428-10.29463137 15.887313-15.93634235 26.9351117-13.54491516 11.0477988 2.39142719 18.9293761 12.16768026 18.9225038 23.47134046z" fill="#a4c2f7"/><path id="Shape" d="m25 1c-.5 0-1 .021-1.5.052 9.268993.57088668 17.3745581 6.44344644 20.8047794 15.0732625 3.4302213 8.629816 1.568014 18.4644145-4.7797794 25.2427375.0598973.9221646-.0074008 1.8481854-.2 2.752l-.03.14c8.3145132-6.1655146 11.7368993-16.9686661 8.4891731-26.7970421-3.2477262-9.82837602-12.433101-16.4653708-22.7841731-16.4629579z" fill="#7facfa"/><path id="Shape" d="m30.388 59h-10.776c-.9406758-.0001515-1.7541064-.6558082-1.954-1.575l-3.077-14.15c-.3857205-1.773699.0522487-3.6266692 1.1912535-5.0399832s2.8565913-2.235027 4.6717465-2.2350168h9.112c1.8151552-.0000102 3.5327417.8217028 4.6717465 2.2350168s1.576974 3.2662842 1.1912535 5.0399832l-3.077 14.15c-.1998936.9191918-1.0133242 1.5748485-1.954 1.575z" fill="#e8edfc"/><path id="Shape" d="m29.556 36h-3c1.8151552-.0000102 3.5327417.8217028 4.6717465 2.2350168s1.576974 3.2662842 1.1912535 5.0399832l-3.077 14.15c-.1998936.9191918-1.0133242 1.5748485-1.954 1.575h3c.9406758-.0001515 1.7541064-.6558082 1.954-1.575l3.077-14.15c.3857205-1.773699-.0522487-3.6266692-1.1912535-5.0399832s-2.8565913-2.235027-4.6717465-2.2350168z" fill="#cad9fc"/><path id="Shape" d="m10.7 44.26c-.2059238-.9479552-.2806224-1.9197092-.222-2.888-6.34534082-6.7738877-8.21074214-16.6017163-4.78876678-25.2295196 3.42197536-8.62780332 11.51646108-14.50532303 20.77976678-15.0884804-.9887416-.06051578-1.9802584-.06051578-2.969 0-10.0553027.62492582-18.64841657 7.46682358-21.51015678 17.1265382-2.86174021 9.6597147.61788896 20.0782248 8.71015678 26.0794618z" fill="#fff"/><path id="Shape" d="m17.658 57.425c.1998936.9191918 1.0133242 1.5748485 1.954 1.575h3c-.9406758-.0001515-1.7541064-.6558082-1.954-1.575l-3.077-14.15c-.3857205-1.773699.0522487-3.6266692 1.1912535-5.0399832s2.8565913-2.235027 4.6717465-2.2350168h-3c-1.8151552-.0000102-3.5327417.8217028-4.6717465 2.2350168s-1.576974 3.2662842-1.1912535 5.0399832z" fill="#fff"/><path id="Shape" d="m1.4 16.825 1.89.656c-.82814041 2.4215236-1.26364105 4.9599184-1.29 7.519h-2c.02646385-2.782336.49913676-5.5424082 1.4-8.175z" fill="#fff"/><g fill="#428dff"><path id="Shape" d="m33 25c0-4.418278-3.581722-8-8-8s-8 3.581722-8 8 3.581722 8 8 8c4.4162219-.0049599 7.9950401-3.5837781 8-8zm-14 0c0-3.3137085 2.6862915-6 6-6s6 2.6862915 6 6-2.6862915 6-6 6c-3.3123376-.0033074-5.9966926-2.6876624-6-6z"/><path id="Shape" d="m37.1 36.439c.2885583-.0007976.5627061-.1262057.752-.344 5.9369754-6.8594238 5.4418532-17.1719869-1.1249629-23.4310842-6.566816-6.25909725-16.8912582-6.25909725-23.4580742 0-6.5668161 6.2590973-7.06193833 16.5716604-1.1249629 23.4310842.1892939.2177943.4634417.3432024.752.344.2884318.0002471.5629235-.1240579.753-.341.7931112-.9149115 1.7637147-1.6592789 2.853-2.188.282716-.136999.4846168-.3988931.5451698-.7071631s-.0272816-.6270764-.2371698-.8608369c-3.9552982-4.4065297-3.7127085-11.1533524.5488501-15.2644357 4.2615586-4.1110834 11.0127412-4.1110834 15.2742998 0 4.2615586 4.1110833 4.5041483 10.857906.5488501 15.2644357-.2098882.2337605-.2977228.5525669-.2371698.8608369s.2624538.5701641.5451698.7071631c1.0909006.5288503 2.0629138 1.2739357 2.857 2.19.1900765.2169421.4645682.3412471.753.341zm-1.645-3.721c3.9684329-5.3729987 3.219155-12.8790302-1.7330884-17.3615362-4.9522433-4.4825061-12.4955799-4.4825061-17.4478232 0-4.9522434 4.482506-5.7015213 11.9885375-1.7330884 17.3615362-.560607.3561052-1.087171.763163-1.573 1.216-4.61289703-6.1935285-3.76945305-14.8772837 1.9491184-20.0673276 5.7185714-5.19004386 14.4431918-5.19004386 20.1617632 0 5.7185715 5.1900439 6.5620154 13.8737991 1.9491184 20.0673276-.4851954-.4527383-1.0110863-.8597933-1.571-1.216z"/><path id="Shape" d="m1.377 22.015c-.55228475.0027614-1.00223858-.4427153-1.005-.995s.44271525-1.0022386.995-1.005h.01c.55228475 0 1 .4477153 1 1s-.44771525 1-1 1z"/><path id="Shape" d="m0 25c.02594417 7.9031749 3.76694935 15.3340706 10.1 20.062.3343788.2493575.7884132.2649719 1.1391329.0391753.3507196-.2257966.524447-.6455702.4358671-1.0531753l-.031-.138c-.3220874-1.4866209-.260487-3.0307606.179-4.487.1081156-.3539138.0119438-.7386011-.25-1-3.578959-3.5483552-5.58630341-8.3831989-5.573-13.423 0-10.4934102 8.5065898-19 19-19s19 8.5065898 19 19c.0122428 5.0398892-1.9961872 9.8743849-5.576 13.422-.2619438.2613989-.3581156.6460862-.25 1 .4394488 1.4555614.5010506 2.9990465.179 4.485.054.945.049.963.406 1.193.3504227.2253216.8038252.2097832 1.138-.039 8.6600233-6.4237522 12.2233959-17.6775846 8.8389237-27.9150621-3.3844722-10.23747738-12.9535037-17.14978561-23.7359237-17.1459379-2.5793476.03566103-5.14057.43733557-7.607 1.193-2.4520844.80356095-4.7690933 1.97201038-6.873 3.466-2.1081461 1.48780199-3.96490561 3.30303762-5.5 5.377-1.56715154 2.0515191-2.78981465 4.3445191-3.62 6.789-.10143945.2509438-.09150694.533165.02732314.7763566s.33537063.4244585.59567686.4986434c.51814043.1473041 1.06410538-.1189992 1.267-.618.76214814-2.2489674 1.88699588-4.3581413 3.33-6.244 1.41144414-1.91036303 3.12054053-3.58164457 5.062-4.95 1.9345202-1.37297676 4.0642732-2.44762893 6.318-3.188 2.2701222-.69346989 4.6265967-1.06377302 7-1.1 9.4794655-.00692506 17.9907745 5.80666951 21.432444 14.6392922 3.4416695 8.8326228 1.1076033 18.8721645-5.877444 25.2807078-.0058753-.8424853-.1095698-1.6814381-.309-2.5 3.7063652-3.8844286 5.7679936-9.0510399 5.754-14.42-.0000002-11.5979796-9.4020204-20.99999969-21-20.99999969s-20.99999983 9.40202009-21 20.99999969c-.01347727 5.3682691 2.04811407 10.534071 5.754 14.418-.19943016.8185619-.30312473 1.6575147-.309 2.5-4.72540101-4.3593124-7.42283817-10.4889621-7.445-16.918 0-.5522847-.44771525-1-1-1s-1 .4477153-1 1z"/><path id="Shape" d="m14.994 37.607c-1.3328007 1.6469328-1.8442823 3.8106105-1.39 5.88l3.076 14.151c.3065536 1.3749705 1.523287 2.355163 2.932 2.362h10.776c1.408713-.006837 2.6254464-.9870295 2.932-2.362l3.08-14.152c.4496271-2.069752-.062054-4.2317869-1.3917037-5.8804438-1.3296498-1.6486568-3.3342697-2.6066293-5.4522963-2.6055562h-9.112c-2.1184846-.0045366-4.124011.9548042-5.45 2.607zm5.45-.607h9.112c1.5123746.0002765 2.943355.6850773 3.8923151 1.8626815s1.3139133 2.7214521.9926849 4.1993185l-3.076 14.15c-.0997436.4597946-.506511.7878731-.977.788h-10.776c-.470489-.0001269-.8772564-.3282054-.977-.788l-3.076-14.149c-.3215771-1.4780131.043213-3.0221548.9922146-4.2000047.9490017-1.17785 2.3801934-1.8627846 3.8927854-1.8629953z"/><path id="Shape" d="m19.5 49.125.529 2.117c.111161.44569.5116567.7583324.971.758.0819126-.0001775.1635037-.0102505.243-.03.5356209-.1337816.8614945-.6763075.728-1.212l-.53-2.117c-.0749001-.3587917-.3400846-.6478574-.6911041-.7533413s-.7316194-.0104812-.991891.2475891c-.2602715.2580702-.3585036.6378494-.2560049.9897522z"/><path id="Shape" d="m18.53 45.242c.1110708.4453282.5110295.7578732.97.758.0819126-.0001775.1635037-.0102505.243-.03.5356209-.1337816.8614945-.6763075.728-1.212l-.5-2c-.0796449-.3539356-.3447323-.636976-.6926975-.7396106-.3479653-.1026346-.7242251-.0087636-.9832013.2452935-.2589763.2540571-.3600447.6284478-.2641012.9783171z"/><path id="Shape" d="m28.758 51.97c.0791715.0196698.1604221.0297422.242.03.4585975-.0005854.8580197-.3130332.969-.758l.529-2.117c.1024987-.3519028.0042666-.731682-.2560049-.9897522-.2602716-.2580703-.6408715-.353073-.991891-.2475891s-.616204.3945496-.6911041.7533413l-.53 2.117c-.0640764.257394-.0232656.5297006.1134524.7570014.1367181.2273008.3581412.3909717.6155476.4549986z"/><path id="Shape" d="m30.258 45.97c.0791715.0196698.1604221.0297422.242.03.4585975-.0005854.8580197-.3130332.969-.758l.5-2c.1192665-.5300108-.2064318-1.0582917-.7335393-1.1897969-.5271076-.1315052-1.0627873.1818752-1.2064607.7057969l-.5 2c-.0640764.257394-.0232656.5297006.1134524.7570014.1367181.2273008.3581412.3909717.6155476.4549986z"/></g></g></g></svg>