<svg height="512" viewBox="0 0 60 60" width="512" xmlns="http://www.w3.org/2000/svg"><g id="034---Baking-Cookies" fill="none"><g id="Layer_11" transform="translate(0 1)"><path id="Shape" d="m54 53.73v3.27c0 .5522847-.4477153 1-1 1h-12c-.5522847 0-1-.4477153-1-1v-3c14 0 13.34.12 14-.27z" fill="#cad9fc"/><path id="Shape" d="m55 50v2c-.0007321.7137984-.3818319 1.373101-1 1.73-.66.38 0 .27-14 .27-.636637-.0093553-1.2307794-.3212801-1.6-.84l-2.25-3.16z" fill="#cad9fc"/><path id="Shape" d="m52 50v2c0 1.1045695-.8954305 2-2 2h-10c-.6472464.0002482-1.2545971-.3127424-1.63-.84l-2.22-3.16z" fill="#e8edfc"/><path id="Shape" d="m55 0h-50c-2.209139 0-4 1.790861-4 4v32c0 2.209139 1.790861 4 4 4h25c.0172205-1.0555519.4439108-2.0631149 1.19-2.81 1.461736-1.4588187 3.785667-1.587926 5.4-.3l1.28 1.11c.1991021.1757944.4823338.2195754.7252224.1121026s.4009723-.3465262.4047776-.6121026v-5.23c-.0633394-4.2888032 3.196876-7.8981716 7.47-8.27 2.21197-.146871 4.3857139.6306886 6.002686 2.1471923s2.5321846 3.6359724 2.527314 5.8528077v8c2.209139 0 4-1.790861 4-4v-32c0-2.209139-1.790861-4-4-4z" fill="#a4c2f7"/><path id="Shape" d="m52.21 40c2.1502769-.0599436 3.8459921-1.8496165 3.79-4v-32c.0559921-2.15038345-1.6397231-3.94005644-3.79-4h-47.42c-2.15027693.05994356-3.84599209 1.84961655-3.79 4v32c-.05599209 2.1503835 1.63972307 3.9400564 3.79 4z" fill="#cad9fc"/><path id="Shape" d="m18 30c.0049248 3.1192384-2.3810275 5.7219825-5.488934 5.9876684-3.10790659.2656859-5.90101212-1.8943157-6.42559879-4.9691297-.52458668-3.074814 1.39434047-6.0387242 4.41453279-6.8185387 1.7951888-.4635182 3.7038307-.0710639 5.1704933 1.0631552 1.4666626 1.134219 2.3265794 2.8827835 2.3295067 4.7368448z" fill="#7facfa"/><path id="Shape" d="m18 10c.0049248 3.1192384-2.3810275 5.7219825-5.488934 5.9876684-3.10790659.2656859-5.90101212-1.8943157-6.42559879-4.9691297-.52458668-3.07481399 1.39434047-6.03872425 4.41453279-6.8185387 1.7951888-.46351822 3.7038307-.07106388 5.1704933 1.06315518s2.3265794 2.88278349 2.3295067 4.73684482z" fill="#7facfa"/><path id="Shape" d="m36 30c.0049248 3.1192384-2.3810275 5.7219825-5.488934 5.9876684-3.1079066.2656859-5.9010121-1.8943157-6.4255988-4.9691297s1.3943405-6.0387242 4.4145328-6.8185387c1.7951888-.4635182 3.7038307-.0710639 5.1704933 1.0631552 1.4666626 1.134219 2.3265794 2.8827835 2.3295067 4.7368448z" fill="#7facfa"/><path id="Shape" d="m54 10c.0049248 3.1192384-2.3810275 5.7219825-5.488934 5.9876684-3.1079066.2656859-5.9010121-1.8943157-6.4255988-4.9691297-.5245867-3.07481399 1.3943405-6.03872425 4.4145328-6.8185387 1.7951888-.46351822 3.7038307-.07106388 5.1704933 1.06315518s2.3265794 2.88278349 2.3295067 4.73684482z" fill="#7facfa"/><path id="Shape" d="m36 10c.0049248 3.1192384-2.3810275 5.7219825-5.488934 5.9876684-3.1079066.2656859-5.9010121-1.8943157-6.4255988-4.9691297-.5245867-3.07481399 1.3943405-6.03872425 4.4145328-6.8185387 1.7951888-.46351822 3.7038307-.07106388 5.1704933 1.06315518s2.3265794 2.88278349 2.3295067 4.73684482z" fill="#7facfa"/><g fill="#a4c2f7"><path id="Shape" d="m15 30c.0002394 2.7361852-1.8507001 5.1259537-4.5 5.81-2.64066051-.6901773-4.48277391-3.0756351-4.48277391-5.805s1.8421134-5.1148227 4.48277391-5.805c2.6456983.6831127 4.4956841 3.0675388 4.5 5.8z"/><path id="Shape" d="m15 10c.0002394 2.7361852-1.8507001 5.1259537-4.5 5.81-2.64066051-.6901773-4.48277391-3.0756351-4.48277391-5.805 0-2.72936486 1.8421134-5.11482274 4.48277391-5.805 2.6456983.68311274 4.4956841 3.06753882 4.5 5.8z"/><path id="Shape" d="m33 30c.0002394 2.7361852-1.8507001 5.1259537-4.5 5.81-2.6406605-.6901773-4.4827739-3.0756351-4.4827739-5.805s1.8421134-5.1148227 4.4827739-5.805c2.6456983.6831127 4.4956841 3.0675388 4.5 5.8z"/><path id="Shape" d="m51 10c.0002394 2.7361852-1.8507001 5.1259537-4.5 5.81-2.6406605-.6901773-4.4827739-3.0756351-4.4827739-5.805 0-2.72936486 1.8421134-5.11482274 4.4827739-5.805 2.6456983.68311274 4.4956841 3.06753882 4.5 5.8z"/><path id="Shape" d="m33 10c.0002394 2.7361852-1.8507001 5.1259537-4.5 5.81-2.6406605-.6901773-4.4827739-3.0756351-4.4827739-5.805 0-2.72936486 1.8421134-5.11482274 4.4827739-5.805 2.6456983.68311274 4.4956841 3.06753882 4.5 5.8z"/></g><path id="Shape" d="m55 32v18h-18.85l-5.39-7.58c-1.1629237-1.6475808-.9402459-3.8990238.5228956-5.2868749 1.4631415-1.3878512 3.7231993-1.4913873 5.3071044-.2431251l1.28 1.11c.1991021.1757944.4823338.2195754.7252224.1121026s.4009723-.3465262.4047776-.6121026v-5.23c-.0368666-3.9191621 2.6951537-7.3205901 6.53-8.13 2.3379498-.43704 4.7491375.1888718 6.5793178 1.7079021s2.8895572 3.7736505 2.8906822 6.1520979z" fill="#e8edfc"/><path id="Shape" d="m45.48 24.15c3.7767203.7109612 6.5142787 4.0069479 6.52 7.85v18h3v-18c-.001275-2.387268-1.0686237-4.6492303-2.9104785-6.1679866s-4.2657395-2.1355947-6.6095215-1.6820134z" fill="#cad9fc"/></g><path id="Shape" d="m4 37v-32c-.0277841-1.06914154.38471484-2.10278023 1.14096731-2.85903269.75625246-.75625247 1.78989115-1.16875141 2.85903269-1.14096731h-3c-1.06914154-.0277841-2.10278023.38471484-2.85903269 1.14096731-.75625247.75625246-1.16875141 1.78989115-1.14096731 2.85903269v32c-.05599209 2.1503835 1.63972307 3.9400564 3.79 4h3c-2.15027693-.0599436-3.84599209-1.8496165-3.79-4z" fill="#fff"/><path id="Rectangle-path" d="m0 5h2v8h-2z" fill="#fff"/><g fill="#428dff"><path id="Shape" d="m1 10c-.55228475 0-1-.44771525-1-1s.44771525-1 1-1 1 .44771525 1 1-.44771525 1-1 1z"/><path id="Shape" d="m6 22h48c.5522847 0 1-.4477153 1-1s-.4477153-1-1-1h-48c-.55228475 0-1 .4477153-1 1s.44771525 1 1 1z"/><path id="Shape" d="m12 38c3.8659932 0 7-3.1340068 7-7s-3.1340068-7-7-7c-3.86599325 0-7 3.1340068-7 7s3.13400675 7 7 7zm0-12c2.7614237 0 5 2.2385763 5 5s-2.2385763 5-5 5c-2.76142375 0-5-2.2385763-5-5s2.23857625-5 5-5z"/><path id="Shape" d="m34.33 28.5c.1319512.2314397.350799.4006596.6079963.4701217.2571974.069462.53148.0334233.7620037-.1001217.2297442-.133628.3968418-.3532172.4643886-.6102702.0675467-.257053.0299853-.5304211-.1043886-.7597298-1.4428778-2.5058908-4.278071-3.8666848-7.1357296-3.4249016s-5.1495669 2.5952077-5.7683681 5.4198263c-.6188012 2.8246185.5628778 5.7390165 2.9740977 7.3350753.1610428.112792.3533994.1722477.55.17.4403997.0009866.8296015-.2862564.9584701-.7073807.1288687-.4211244-.0329363-.8769815-.3984701-1.1226193-1.7212947-1.1397979-2.5650952-3.220305-2.1240336-5.2370994.4410616-2.0167943 2.0762877-3.5551523 4.1162278-3.8723891 2.03994-.3172369 4.065111.6518822 5.0978058 2.4394885z"/><path id="Shape" d="m12 18c3.8659932 0 7-3.1340068 7-7 0-3.86599325-3.1340068-7-7-7-3.86599325 0-7 3.13400675-7 7 0 1.8565154.73749788 3.6369928 2.05025253 4.9497475 1.31275465 1.3127546 3.09323207 2.0502525 4.94974747 2.0502525zm0-12c2.7614237 0 5 2.23857625 5 5 0 2.7614237-2.2385763 5-5 5-2.76142375 0-5-2.2385763-5-5 0-2.76142375 2.23857625-5 5-5z"/><path id="Shape" d="m10 12c.5522847 0 1-.4477153 1-1s.4477153-1 1-1 1-.44771525 1-1-.4477153-1-1-1c-3 0-3.92 4-2 4z"/><path id="Shape" d="m31 9c0-1.91-4-1-4 2 0 .5522847.4477153 1 1 1s1-.4477153 1-1 .4477153-1 1-1 1-.44771525 1-1z"/><path id="Shape" d="m49 9c0-1.91-4-1-4 2 0 .5522847.4477153 1 1 1s1-.4477153 1-1 .4477153-1 1-1 1-.44771525 1-1z"/><path id="Shape" d="m10 32c.5522847 0 1-.4477153 1-1s.4477153-1 1-1 1-.4477153 1-1-.4477153-1-1-1c-3 0-3.92 4-2 4z"/><path id="Shape" d="m27 31c0 .5522847.4477153 1 1 1s1-.4477153 1-1 .4477153-1 1-1 1-.4477153 1-1c0-1.91-4-1-4 2z"/><path id="Shape" d="m55 11c0-3.86599325-3.1340068-7-7-7s-7 3.13400675-7 7c0 3.8659932 3.1340068 7 7 7s7-3.1340068 7-7zm-12 0c0-2.76142375 2.2385763-5 5-5s5 2.23857625 5 5c0 2.7614237-2.2385763 5-5 5s-5-2.2385763-5-5z"/><path id="Shape" d="m37 11c0-3.86599325-3.1340068-7-7-7s-7 3.13400675-7 7c0 3.8659932 3.1340068 7 7 7s7-3.1340068 7-7zm-12 0c0-2.76142375 2.2385763-5 5-5s5 2.23857625 5 5c0 2.7614237-2.2385763 5-5 5s-5-2.2385763-5-5z"/><path id="Shape" d="m55 0h-50c-2.76142375 0-5 2.23857625-5 5 0 .35726559.19059892.68739261.5.8660254.30940108.1786328.69059892.1786328 1 0 .30940108-.17863279.5-.50875981.5-.8660254 0-1.65685425 1.34314575-3 3-3h50c1.6568542 0 3 1.34314575 3 3v32c-.0035644 1.2682549-.8042713 2.3972517-2 2.82v-6.82c.0055502-2.4946365-1.0245729-4.8796699-2.8445076-6.5858586-1.8199346-1.7061887-4.2664-2.5804571-6.7554924-2.4141414-4.80256.3992654-8.4744397 4.4514469-8.4 9.27v4.52l-.78-.68c-1.3584052-1.1270512-3.2104069-1.4543783-4.8728428-.8612376s-2.8889685 2.0188585-3.2271572 3.7512376h-24.12c-1.65685425 0-3-1.3431458-3-3v-24c0-.5522847-.44771525-1-1-1s-1 .4477153-1 1v24c0 2.7614237 2.23857625 5 5 5h24.1c.1351221.7186557.4214483 1.4003847.84 2 9.54 13.41 7.23 10.18 7.73 10.83.3401703.4520757.8012419.7987461 1.33 1v2.17c0 1.1045695.8954305 2 2 2h12c1.1045695 0 2-.8954305 2-2v-2.78c.6321439-.5653847.9954467-1.3719168 1-2.22v-11.1c2.3283313-.4752686 4.000485-2.5236569 4-4.9v-32c0-2.76142375-2.2385763-5-5-5zm-15.69 53.69c-.4489616-.5315594-.8568066-1.096525-1.22-1.69h15.91v1c0 .5522847-.4477153 1-1 1h-13c-.2617181-.0090011-.5094625-.1203066-.69-.31zm-7.41-14.79c1.0713031-1.0954137 2.7959067-1.207513 4-.26l1.27 1.12c.4929939.4632092 1.2157153.585551 1.8336972.3104071.6179818-.2751439 1.0106581-.8940938.9963028-1.5704071v-5.23c-.1140542-2.8409964 1.501688-5.4687384 4.0883884-6.6490987 2.5867003-1.1803603 5.6303983-.678809 7.7016116 1.2690987 1.4114861 1.3245206 2.2115208 3.1743746 2.21 5.11l.0000022 17h-17.3300022l-5.1-7.16c-.8934084-1.2103142-.7522916-2.8951632.33-3.94zm21.1 17.1v2h-12v-2z"/></g></g></svg>