<svg height="512" viewBox="0 0 64 64" width="512" xmlns="http://www.w3.org/2000/svg"><g id="Stroke_copy_2" data-name="Stroke copy 2"><path d="m19.16 15h-.16a10 10 0 0 0 -10 10v26h20v-4.92a7 7 0 0 0 -2.27-5.16l-8.39-7.7a2 2 0 0 1 -.25-2.67l1.07-1.43a2 2 0 0 1 2.18-.72l6.1 1.83a3 3 0 0 0 3.61-1.69l1.1-2.54a3 3 0 0 0 -.75-3.41l-5.55-5a10 10 0 0 0 -6.69-2.59z" fill="#aae1f9"/><path d="m9 25a10 10 0 0 1 10-10h.16a10 10 0 0 1 6.69 2.57l.17.15 2.51-3.13a14 14 0 0 0 -9.37-3.59h-.16a14 14 0 0 0 -14 14v12l4 2z" fill="#4891d3"/><g fill="#57b7eb"><path d="m14 12a15.3 15.3 0 0 1 11.31 5.12c.19.15.37.29.54.45l.17.15 2.51-3.13a14 14 0 0 0 -9.37-3.59h-.16a13.84 13.84 0 0 0 -5.2 1z"/><path d="m9 51h20a3 3 0 0 1 3 3v3a0 0 0 0 1 0 0h-26a0 0 0 0 1 0 0v-3a3 3 0 0 1 3-3z"/><path d="m15 19-2-3.46a2 2 0 0 1 .73-2.74 2 2 0 0 1 2.73.74l.5.86a3 3 0 0 1 -1.09 4.1z"/><path d="m5 57h28a2 2 0 0 1 2 2v2a0 0 0 0 1 0 0h-32a0 0 0 0 1 0 0v-2a2 2 0 0 1 2-2z"/><path d="m14 30v-10a9.91 9.91 0 0 1 .89-4.11 10 10 0 0 0 -5.89 9.11v26h20v-4.92s0-.08 0-.08a16 16 0 0 1 -15-16z"/><path d="m28.44 28.23-6.1-1.83a2 2 0 0 0 -2.18.72l-1.07 1.43a2 2 0 0 0 -.39 1.19l.46-.62a2 2 0 0 1 2.18-.72l6.1 1.83a3 3 0 0 0 3.61-1.69l.55-1.28a3 3 0 0 1 -3.16.97z"/></g><path d="m9 51h20a3 3 0 0 1 3 3 0 0 0 0 1 0 0h-20a3 3 0 0 1 -3-3 0 0 0 0 1 0 0z" fill="#aae1f9"/><path d="m6 57h27a2 2 0 0 1 2 2 0 0 0 0 1 0 0h-27a2 2 0 0 1 -2-2 0 0 0 0 1 0 0z" fill="#aae1f9"/><path d="m28.32 26.05a1 1 0 1 0 -.64 1.9l3 1h.14a2.55 2.55 0 0 0 .23-.43l.57-1.32a1.11 1.11 0 0 0 -.3-.17z" fill="#4891d3"/><path d="m18.6 42.2a1 1 0 1 0 -1.2 1.6 9.05 9.05 0 0 1 3.6 7.2h2a11 11 0 0 0 -4.4-8.8z" fill="#4891d3"/><path d="m54 6h-3v-3h-4v3h-3v4h3v4h4v-4h3z" fill="#57b7eb"/><path d="m52 21h-6l-1.81-4.21a2 2 0 0 1 1.81-2.79h6a2 2 0 0 1 1.84 2.79z" fill="#aae1f9"/><path d="m52 25h-6l-3 18h12z" fill="#57b7eb"/><path d="m39 47h20a2 2 0 0 1 2 2v2a0 0 0 0 1 0 0h-24a0 0 0 0 1 0 0v-2a2 2 0 0 1 2-2z" fill="#aae1f9"/><rect fill="#aae1f9" height="4" rx="2" width="12" x="43" y="21"/><path d="m42 43h14a2 2 0 0 1 2 2v2a0 0 0 0 1 0 0h-18a0 0 0 0 1 0 0v-2a2 2 0 0 1 2-2z" fill="#aae1f9"/><path d="m47 23a2 2 0 0 1 -2-2 2 2 0 0 0 0 4h8a2 2 0 0 0 2-2z" fill="#57b7eb"/><path d="m51 3h-2v2a3 3 0 0 0 3 3h2v-2h-3z" fill="#aae1f9"/><path d="m46 8h-2v2h3v4h2v-3a3 3 0 0 0 -3-3z" fill="#4891d3"/><path d="m51.6 19a5 5 0 0 1 -4.74-3.42l-.53-1.58h-.33a2 2 0 0 0 -1.84 2.79l1.84 4.21h6l.86-2z" fill="#57b7eb"/><path d="m47.86 31.85.39-2.34a3 3 0 0 1 3-2.51h1.12l-.37-2h-6l-3 18h12l-.5-3a7 7 0 0 1 -6.64-8.15z" fill="#4891d3"/><path d="m44 45a2 2 0 0 1 -2-2 2 2 0 0 0 -2 2v2h18v-2z" fill="#57b7eb"/><path d="m42 49a2 2 0 0 1 -2-2h-1a2 2 0 0 0 -2 2v2h24v-2z" fill="#57b7eb"/></g></svg>