<svg id="_x33_0" enable-background="new 0 0 64 64" height="512" viewBox="0 0 64 64" width="512" xmlns="http://www.w3.org/2000/svg" xmlns:xlink="http://www.w3.org/1999/xlink"><linearGradient id="SVGID_1_" gradientUnits="userSpaceOnUse" x1="32" x2="32" y1="63" y2=".132"><stop offset="0" stop-color="#9f2fff"/><stop offset="1" stop-color="#0bb1d3"/></linearGradient><path d="m46 60.423c0-1.219.728-2.308 1.904-2.795 1.135-.475 2.427-.223 3.292.643l1.823 1.823 7.074-7.074-1.823-1.823c-.864-.865-1.117-2.157-.621-3.344.466-1.125 1.555-1.853 2.774-1.853h2.577v-10h-2.577c-1.219 0-2.308-.728-2.795-1.904-.475-1.135-.222-2.427.643-3.292l1.823-1.823-7.074-7.074-1.823 1.823c-.342.343-.753.585-1.196.727v-6.457c0-.552.448-1 1-1h3v4.868l8.802-5.868-8.803-5.868v4.868h-3c-1.654 0-3 1.346-3 3v6.4c-.049-.018-.099-.029-.147-.05-1.125-.465-1.853-1.554-1.853-2.773v-2.577h-2v-2h-2v2h-2v-2h-2v2h-2v2.577c0 1.219-.728 2.308-1.904 2.795-.031.013-.064.02-.096.032v-10.404c0-1.302-.839-2.402-2-2.816v-4.184h5c.552 0 1 .448 1 1v3h2v-3c0-1.654-1.346-3-3-3h-5v-4.868l-8.803 5.868 7.5 5h-16.697v-4.868l-8.803 5.868 4.517 3.011c-2.056.062-3.714 1.746-3.714 3.817 0 1.022.398 1.984 1.121 2.707l.312.312c-1.527 1.082-2.433 2.829-2.433 4.708 0 1.143.335 2.25.97 3.202l1.066 1.6c.184 2.037 1.88 3.643 3.964 3.643h.263c.519 2.007 1.796 3.708 3.511 4.78l-.582 2.325-4.209.601c-1.537.221-3.032.791-4.324 1.652-2.917 1.945-4.659 5.2-4.659 8.706v9.936h45zm10-46.555 3.197 2.132-3.197 2.132zm-26-5.736-3.197-2.132 3.197-2.132zm1 4.868c.552 0 1 .448 1 1v10.458c-.377-.122-.728-.323-1.037-.592-.379-4.95-4.52-8.866-9.567-8.866h-7.396v-2zm5.952 39.285c-.061-.813-.214-1.605-.455-2.369 1.355.688 2.882 1.084 4.503 1.084 5.514 0 10-4.486 10-10s-4.486-10-10-10-10 4.486-10 10c0 .976.147 1.918.409 2.811-.709-.372-1.46-.667-2.236-.87-.103-.64-.173-1.287-.173-1.941 0-6.617 5.383-12 12-12s12 5.383 12 12-5.383 12-12 12c-1.396 0-2.752-.25-4.048-.715zm-13.684-8.237 1.234.176-1.183 3.201-2.53-1.518zm4.465.639c.09.013.177.038.267.054v5.412l-3.788.632 2.317-6.27zm-8.733 2.479 3.614 2.169-3.614 9.779-3.614-9.779zm-1.436 13.834h-1.984l-3.274-5.729 2.458-1.844zm5.671-7.574 2.458 1.844-3.273 5.73h-1.984zm5.072 1.303-2.837-2.127 4.53-.754v-6.49c.427.191.843.406 1.231.664 2.36 1.574 3.769 4.206 3.769 7.042v7.936h-10.277zm4.762-12.729h6.931v6.931c-3.612-.454-6.477-3.319-6.931-6.931zm8.931 0h6.931c-.453 3.612-3.319 6.477-6.931 6.931zm0-2v-6.931c3.612.453 6.477 3.319 6.931 6.931zm-2 0h-6.931c.453-3.612 3.319-6.477 6.931-6.931zm-13 1c0 .527.033 1.053.091 1.574l-3.284-.469-.582-2.325c1.715-1.073 2.991-2.773 3.511-4.78h.264c.537 0 1.048-.11 1.516-.302-.962 1.897-1.516 4.034-1.516 6.302zm0-12c1.103 0 2 .897 2 2s-.897 2-2 2zm-15-19.132v4.264l-3.197-2.132zm-3.319 13.547 1.889-1.26-2.034-2.034c-.341-.34-.536-.811-.536-1.293 0-1.008.82-1.828 1.828-1.828h11.568c4.193 0 7.604 3.411 7.604 7.604 0 .818-.131 1.627-.391 2.404l-.098.293c-.466-.191-.976-.301-1.511-.301h-1-1.395c-1.923 0-3.707-.955-4.773-2.555l-.832-1.248-.832 1.248c-1.066 1.6-2.851 2.555-4.773 2.555h-1.395-1c-1.37 0-2.579.693-3.3 1.746l-.066-.099c-.415-.622-.634-1.345-.634-2.092 0-1.265.628-2.439 1.681-3.14zm.319 7.585c0-1.103.897-2 2-2v4c-1.103 0-2-.897-2-2zm4 2v-4h.395c2.143 0 4.159-.88 5.605-2.403 1.446 1.523 3.463 2.403 5.605 2.403h.395v4c0 3.309-2.691 6-6 6s-6-2.691-6-6zm6 8c.828 0 1.628-.127 2.379-.361l.489 1.96-2.868 2.151-2.869-2.152.489-1.96c.752.235 1.552.362 2.38.362zm-4.268 3.048 2.479 1.859-2.53 1.518-1.183-3.201zm-3.261.466 2.317 6.27-3.788-.632v-5.412c.089-.016.177-.041.267-.054zm-8.471 8.55c0-2.837 1.409-5.469 3.769-7.042.388-.258.804-.473 1.231-.664v6.49l4.531.754-2.837 2.127 3.583 6.271h-10.277zm41 7.359v.577h-7v-6.584c1.292.385 2.631.584 4 .584 7.72 0 14-6.28 14-14s-6.28-14-14-14c-3.929 0-7.48 1.633-10.025 4.248.005-.083.025-.163.025-.248 0-.901-.31-1.724-.814-2.393l.322-.967c.162-.486.283-.983.366-1.485 1.244.56 2.691.608 4.04.044 1.874-.777 3.086-2.592 3.086-4.622v-.577h6v.577c0 2.03 1.212 3.845 3.133 4.641 1.889.788 4.038.368 5.478-1.074l.409-.409 4.246 4.246-.409.409c-1.44 1.44-1.862 3.591-1.055 5.523.776 1.875 2.591 3.087 4.621 3.087h.577v6h-.577c-2.03 0-3.845 1.212-4.641 3.133-.788 1.887-.366 4.037 1.074 5.478l.409.409-4.246 4.246-.409-.409c-1.439-1.439-3.587-1.862-5.523-1.055-1.875.776-3.087 2.591-3.087 4.621zm14.803-54.423-8.803-5.868v4.868h-5c-1.654 0-3 1.346-3 3v3h2v-3c0-.552.448-1 1-1h5v4.868zm-6.803-2.132 3.197 2.132-3.197 2.132zm-10 9.132h2v2h-2zm-4 0h2v2h-2z" fill="url(#SVGID_1_)"/></svg>