<svg height="512" viewBox="0 0 58 60" width="512" xmlns="http://www.w3.org/2000/svg"><g id="029---Painting" fill="none"><g id="Icons" transform="translate(0 1)"><path id="Shape" d="m39 54c-5.47 3.13-10.49 4.27-14.45 3.9-6.16-.57-9.77-4.81-8.55-10.9.1-.5.1.47-.48-7.54-1.52-1.84-4.84-2.12-9.52-4.46-7.74-3.87-7-16.92 6-24 5.6721528-2.92046941 11.9410239-4.49453093 18.32-4.6 6-.18 10.75.74 12.26 1.41l9.74 12.19c5.68 14.74-.2 26.5-13.32 34z" fill="#cad9fc"/><path id="Shape" d="m36 54c-3.492991 2.1057093-7.3979036 3.4357669-11.45 3.9-6.16-.57-9.77-4.81-8.55-10.9.1-.5.1.47-.48-7.54-1.52-1.84-4.84-2.12-9.52-4.46-7.74-3.87-7-16.92 6-24 5.6721528-2.92046941 11.9410239-4.49453093 18.32-4.6 3.1411885-.01412217 6.2653741.46159075 9.26 1.41l9.74 12.19c5.68 14.74-.2 26.5-13.32 34z" fill="#e8edfc"/><path id="Shape" d="m56.71 11.06c.17 3.5-1.78 6.68-4.35 8.91-2.92 2.52-7.38 4.79-10.82 3.07 1-.9 1-.81 1.13-1.14 1.26-2.49-3-6.74-5.54-5.54-.11.05.13-.24-1 1-.52-5.28 2-9.13 7.82-9.76 4.75-.52 6.29-3.38 7-5.49.15-.5.26-.95.35-1.32.114122-.33915826.4007723-.59148615.751667-.66166508.3508946-.07017893.7125442.05248898.948333.32166508.14.22 1 2.09 1.17 2.32 1.42407 2.55232652 2.2898362 5.37799653 2.54 8.29z" fill="#7facfa"/><path id="Shape" d="m53.71 11.06c.17 3.5-1.78 6.68-4.35 8.91-1.8796301 1.7068967-4.1602975 2.9108689-6.63 3.5-.4169681-.0792901-.8186592-.224439-1.19-.43 1-.9 1-.81 1.13-1.14 1.26-2.49-3-6.74-5.54-5.54-.11.05.13-.24-1 1-.52-5.28 2-9.13 7.82-9.76 4.75-.52 6.29-3.38 7-5.49 1.28 2.79 2.6 5.55 2.76 8.95z" fill="#a4c2f7"/><g fill="#cad9fc"><path id="Shape" d="m42.62 21.92c-.16.33-.2.28-.53.61-.1 0-2 2.07-37.58 34.92-.66042997.6270947-1.64978715.7570267-2.44974152.3217239s-1.22815233-1.336611-1.06025848-2.2317239c.07699863-.375193.25707299-.7214898.52-1 37.94-40.74 35.2-37.95 35.53-38.11 2.5-1.31 6.83 3 5.57 5.49z"/><circle id="Oval" cx="27" cy="13" r="3"/><circle id="Oval" cx="17" cy="17" r="3"/></g><circle id="Oval" cx="9" cy="25" fill="#fff" r="3"/><circle id="Oval" cx="26" cy="50" fill="#cad9fc" r="3"/><circle id="Oval" cx="36" cy="46" fill="#cad9fc" r="3"/><circle id="Oval" cx="44" cy="38" fill="#cad9fc" r="3"/><path id="Shape" d="m41.09 20.35c-1.88 1.88-15.16 14.57-37.58 34.93-.68404149.6389661-1.70951204.7451902-2.51.26.07699863-.375193.25707299-.7214898.52-1 46.23-49.66 32.86-35.46 35.56-38.16 1.5-.8 3.65.59 4.71 2 .0329486.7228926-.2182998 1.4299775-.7 1.97z" fill="#e8edfc"/></g><path id="Shape" d="m1 49.53c-.16451463.8869284.25857461 1.7793279 1.04935493 2.2133481s1.77079169.3117134 2.43064507-.3033481l.09-.08c-.47185753-.4795632-.68400669-1.1569518-.57-1.82.07699863-.375193.25707299-.7214898.52-1l13.48-14.54c-1.53-1.84-4.34-2.62-9-5-7.74-3.87-7-16.92 6-24 5.6686253-2.92033287 11.9342245-4.49443207 18.31-4.6-1 0-2 0-3 0-6.3755861.10700057-12.6408644 1.68101915-18.31 4.6-13 7.08-13.74 20.13-6 24 4.68 2.34 8 2.62 9.52 4.46l-14 15c-.27479121.2977652-.45566861.6699552-.52 1.07z" fill="#fff" transform="translate(0 7)"/><g id="Layer_2" transform="translate(-1 -1)"><path id="Shape" d="m7.4 18.52-1.46-1.36c1.93087379-1.9864295 4.1489041-3.6718628 6.58-5l1 1.76c-2.2570144 1.2210653-4.31963086 2.771398-6.12 4.6z" fill="#fff"/><g fill="#428dff"><path id="Shape" d="m1.91 60.09c1.17144385 1.1734751 3.06026172 1.2131933 4.28.09l9.6-8.92c-.0902565 2.9735001 1.2946714 5.7995018 3.7 7.55 5.79 4.18 14.73 1.64 21-1.94 14.2-8.12 19.15-20.39 14-34.59 2.6969119-2.3267351 4.2391357-5.7181657 4.22-9.28-.17-3.57-1.56-6.48-2.94-9.28-.62-1.26-.83-1.66-.93-1.82-.4437701-.67603689-1.2509851-1.0183087-2.0454367-.86729724s-1.4197866.76558616-1.5845633 1.55729724c-.47 1.9-1.33 5.45-6.44 6-.37 0-.72.1-1.07.17-3.51-1.28-18.7-3.45-31.18 3.36-.4038258.2179481-.6074884.6827729-.4939677 1.127396.1135208.444623.5150873.7549213.9739677.752604.1675258.0008382.3325776-.0404248.48-.12 9.74-5.31 21.3-4.83 26.79-3.88-4.1 2.36-4.36 6.93-4.24 9l-19.56 21c-1.93-1.47-4.95-1.91-9-3.94-2.77-1.39-4.6-4.37-4.4-8.31.12630932-1.7376292.58458066-3.4349305 1.35-5l.58-1.08c.22474744-.3754422.4683938-.739243.73-1.09.50824186-.7245479 1.06625455-1.4128749 1.67-2.06.37465369-.3875966.37465369-1.0024034 0-1.39-.18814048-.1924127-.44589129-.3008755-.715-.3008755s-.52685952.1084628-.715.3008755c-.66156591.7136052-1.27302271 1.4720789-1.83 2.27-.29409242.3936168-.56456782.8043387-.81 1.23l-.73 1.37c-3.46 7.53-.71 13.57 4 15.93 3.59 1.83 7 2.56 8.55 3.63l-13.34 14.26c-1.12449651 1.2170743-1.08023828 3.1069008.1 4.27zm37.59-5c-8.92 5.1-15.58 4.41-18.84 2.06-2.39-1.72-3.34-4.52-2.68-8l24.72-23c3.32 1.26 7.25-.44 10.15-2.6 4.38 12.99-.32 24.14-13.35 31.58zm5.5-44.5c6.5-.71 7.66-5.48 8.16-7.61.14.23 1 2 1.13 2.25 1.3644742 2.42254868 2.1931337 5.1097245 2.43 7.88.15 3.15-1.66 6.08-4 8.13-1.11 1-4.8 3.83-8.3 3.36 2-3.1-2.74-8.41-6.34-7.26.21-3.84 2.52-6.27 6.92-6.75zm-41.72 46.59c36.72-39.83 35.15-37.85 35.25-37.91.59-.3 1.91.06 3 1.18s1.48 2.43 1.19 3c-.06.12 2-1.49-37.91 35.26-.42762341.3970647-1.0921052.3869158-1.50740288-.0230232-.41529769-.409939-.43407502-1.074233-.04259712-1.5069768z"/><path id="Shape" d="m10.66 15.17c0-.5522847-.4477153-1-1-1-.55228475 0-1 .4477153-1 1s.44771525 1 1 1c.5522847 0 1-.4477153 1-1z"/><path id="Shape" d="m32 15c0-2.209139-1.790861-4-4-4s-4 1.790861-4 4 1.790861 4 4 4 4-1.790861 4-4zm-6 0c0-1.1045695.8954305-2 2-2s2 .8954305 2 2-.8954305 2-2 2-2-.8954305-2-2z"/><path id="Shape" d="m22 19c0-2.209139-1.790861-4-4-4s-4 1.790861-4 4 1.790861 4 4 4 4-1.790861 4-4zm-6 0c0-1.1045695.8954305-2 2-2s2 .8954305 2 2-.8954305 2-2 2-2-.8954305-2-2z"/><path id="Shape" d="m6 27c0 2.209139 1.790861 4 4 4s4-1.790861 4-4-1.790861-4-4-4-4 1.790861-4 4zm4-2c1.1045695 0 2 .8954305 2 2s-.8954305 2-2 2-2-.8954305-2-2 .8954305-2 2-2z"/><path id="Shape" d="m27 48c-2.209139 0-4 1.790861-4 4s1.790861 4 4 4 4-1.790861 4-4-1.790861-4-4-4zm0 6c-1.1045695 0-2-.8954305-2-2s.8954305-2 2-2 2 .8954305 2 2-.8954305 2-2 2z"/><path id="Shape" d="m37 44c-2.209139 0-4 1.790861-4 4s1.790861 4 4 4 4-1.790861 4-4-1.790861-4-4-4zm0 6c-1.1045695 0-2-.8954305-2-2s.8954305-2 2-2 2 .8954305 2 2-.8954305 2-2 2z"/><path id="Shape" d="m45 36c-2.209139 0-4 1.790861-4 4s1.790861 4 4 4 4-1.790861 4-4-1.790861-4-4-4zm0 6c-1.1045695 0-2-.8954305-2-2s.8954305-2 2-2 2 .8954305 2 2-.8954305 2-2 2z"/></g></g></g></svg>